Commissioner-FlairBlackItalic.ufo
<glyph name="ampersand" format="2">
  <advance width="1614"/>
  <unicode hex="0026"/>
  <outline>
    <contour>
      <point x="938" y="0" type="curve"/>
      <point x="1526" y="0" type="line"/>
      <point x="1374" y="164"/>
      <point x="1260" y="328"/>
      <point x="1146" y="492" type="curve"/>
      <point x="848" y="922" type="line" smooth="yes"/>
      <point x="796" y="996"/>
      <point x="786" y="1058"/>
      <point x="800" y="1118" type="curve" smooth="yes"/>
      <point x="810" y="1162"/>
      <point x="842" y="1192"/>
      <point x="888" y="1196" type="curve"/>
      <point x="936" y="1188"/>
      <point x="968" y="1136"/>
      <point x="958" y="1088" type="curve" smooth="yes"/>
      <point x="948" y="1046"/>
      <point x="906" y="992"/>
      <point x="820" y="934" type="curve"/>
      <point x="952" y="738" type="line"/>
      <point x="1080" y="818"/>
      <point x="1262" y="900"/>
      <point x="1300" y="1074" type="curve" smooth="yes"/>
      <point x="1348" y="1296"/>
      <point x="1150" y="1458"/>
      <point x="862" y="1458" type="curve" smooth="yes"/>
      <point x="636" y="1458"/>
      <point x="436" y="1386"/>
      <point x="386" y="1150" type="curve" smooth="yes"/>
      <point x="356" y="1008"/>
      <point x="396" y="848"/>
      <point x="470" y="740" type="curve" smooth="yes"/>
      <point x="786" y="272" type="line"/>
      <point x="850" y="182"/>
      <point x="912" y="90"/>
    </contour>
    <contour>
      <point x="428" y="-28" type="curve" smooth="yes"/>
      <point x="572" y="-28"/>
      <point x="714" y="32"/>
      <point x="856" y="128" type="curve"/>
      <point x="890" y="128" type="line"/>
      <point x="880" y="188" type="line"/>
      <point x="730" y="382" type="line"/>
      <point x="680" y="338"/>
      <point x="610" y="308"/>
      <point x="570" y="308" type="curve"/>
      <point x="480" y="316"/>
      <point x="444" y="390"/>
      <point x="462" y="452" type="curve" smooth="yes"/>
      <point x="474" y="504"/>
      <point x="506" y="556"/>
      <point x="580" y="602" type="curve"/>
      <point x="442" y="832" type="line"/>
      <point x="252" y="762"/>
      <point x="76" y="650"/>
      <point x="30" y="434" type="curve" smooth="yes"/>
      <point x="-22" y="192"/>
      <point x="104" y="-28"/>
    </contour>
    <contour>
      <point x="1200" y="312" type="line"/>
      <point x="1334" y="426"/>
      <point x="1470" y="540"/>
      <point x="1620" y="638" type="curve"/>
      <point x="1280" y="902" type="line"/>
      <point x="1204" y="776"/>
      <point x="1110" y="664"/>
      <point x="1016" y="554" type="curve"/>
    </contour>
  </outline>
</glyph>
<glyph name="parenleft" format="2">
  <advance width="882"/>
  <unicode hex="0028"/>
  <outline>
    <contour>
      <point x="382" y="-290" type="curve"/>
      <point x="728" y="-170" type="line"/>
      <point x="574" y="74"/>
      <point x="468" y="302"/>
      <point x="544" y="658" type="curve" smooth="yes"/>
      <point x="620" y="1016"/>
      <point x="826" y="1248"/>
      <point x="1072" y="1454" type="curve"/>
      <point x="734" y="1582" type="line"/>
      <point x="514" y="1438"/>
      <point x="196" y="1150"/>
      <point x="104" y="712" type="curve" smooth="yes"/>
      <point x="12" y="274"/>
      <point x="228" y="-110"/>
    </contour>
  </outline>
</glyph>
<glyph name="asterisk" format="2">
  <advance width="1026"/>
  <unicode hex="002A"/>
  <outline>
    <contour>
      <point x="874" y="606" type="curve"/>
      <point x="1070" y="824" type="line"/>
      <point x="934" y="908"/>
      <point x="806" y="996"/>
      <point x="678" y="1086" type="curve"/>
      <point x="572" y="1204"/>
      <point x="472" y="1324"/>
      <point x="374" y="1450" type="curve"/>
      <point x="178" y="1232" type="line"/>
      <point x="312" y="1148"/>
      <point x="444" y="1058"/>
      <point x="570" y="966" type="curve"/>
      <point x="674" y="850"/>
      <point x="776" y="728"/>
    </contour>
    <contour>
      <point x="224" y="744" type="line"/>
      <point x="364" y="818"/>
      <point x="506" y="886"/>
      <point x="650" y="952" type="curve"/>
      <point x="804" y="982"/>
      <point x="958" y="1010"/>
      <point x="1114" y="1034" type="curve"/>
      <point x="1024" y="1312" type="line"/>
      <point x="884" y="1236"/>
      <point x="742" y="1168"/>
      <point x="600" y="1104" type="curve"/>
      <point x="444" y="1072"/>
      <point x="290" y="1044"/>
      <point x="132" y="1022" type="curve"/>
    </contour>
    <contour>
      <point x="382" y="602" type="curve"/>
      <point x="670" y="540" type="line"/>
      <point x="676" y="698"/>
      <point x="688" y="856"/>
      <point x="702" y="1012" type="curve"/>
      <point x="754" y="1160"/>
      <point x="806" y="1308"/>
      <point x="864" y="1456" type="curve"/>
      <point x="578" y="1516" type="line"/>
      <point x="572" y="1358"/>
      <point x="560" y="1202"/>
      <point x="546" y="1044" type="curve"/>
      <point x="494" y="896"/>
      <point x="442" y="748"/>
    </contour>
  </outline>
</glyph>
<glyph name="period" format="2">
  <advance width="590"/>
  <unicode hex="002E"/>
  <outline>
    <contour>
      <point x="214" y="-32" type="curve" smooth="yes"/>
      <point x="368" y="-32"/>
      <point x="448" y="42"/>
      <point x="476" y="182" type="curve" smooth="yes"/>
      <point x="500" y="310"/>
      <point x="430" y="438"/>
      <point x="252" y="438" type="curve" smooth="yes"/>
      <point x="78" y="438"/>
      <point x="18" y="366"/>
      <point x="-4" y="254" type="curve" smooth="yes"/>
      <point x="-34" y="102"/>
      <point x="42" y="-32"/>
    </contour>
  </outline>
</glyph>
<glyph name="slash" format="2">
  <advance width="970"/>
  <unicode hex="002F"/>
  <outline>
    <contour>
      <point x="-114" y="0" type="curve"/>
      <point x="394" y="0" type="line"/>
      <point x="448" y="148"/>
      <point x="512" y="274"/>
      <point x="612" y="456" type="curve"/>
      <point x="880" y="948" type="line"/>
      <point x="986" y="1142"/>
      <point x="1060" y="1272"/>
      <point x="1172" y="1426" type="curve"/>
      <point x="666" y="1426" type="line"/>
      <point x="610" y="1272"/>
      <point x="542" y="1142"/>
      <point x="440" y="954" type="curve"/>
      <point x="168" y="456" type="line"/>
      <point x="68" y="274"/>
      <point x="-6" y="148"/>
    </contour>
  </outline>
</glyph>
<glyph name="zero" format="2">
  <advance width="1356"/>
  <unicode hex="0030"/>
  <outline>
    <contour>
      <point x="642" y="-30" type="curve" smooth="yes"/>
      <point x="1038" y="-30"/>
      <point x="1236" y="202"/>
      <point x="1326" y="630" type="curve" smooth="yes"/>
      <point x="1414" y="1056"/>
      <point x="1256" y="1412"/>
      <point x="792" y="1412" type="curve" smooth="yes"/>
      <point x="384" y="1412"/>
      <point x="196" y="1166"/>
      <point x="110" y="748" type="curve" smooth="yes"/>
      <point x="28" y="346"/>
      <point x="162" y="-30"/>
    </contour>
    <contour>
      <point x="658" y="344" type="curve"/>
      <point x="550" y="358"/>
      <point x="540" y="510"/>
      <point x="580" y="706" type="curve" smooth="yes"/>
      <point x="624" y="918"/>
      <point x="684" y="1022"/>
      <point x="782" y="1036" type="curve"/>
      <point x="880" y="1022"/>
      <point x="904" y="872"/>
      <point x="860" y="670" type="curve" smooth="yes"/>
      <point x="816" y="466"/>
      <point x="758" y="358"/>
    </contour>
  </outline>
</glyph>
<glyph name="one" format="2">
  <advance width="980"/>
  <unicode hex="0031"/>
  <outline>
    <contour>
      <point x="184" y="734" type="line"/>
      <point x="354" y="828"/>
      <point x="530" y="898"/>
      <point x="704" y="964" type="curve"/>
      <point x="808" y="1392" type="line"/>
      <point x="588" y="1304"/>
      <point x="368" y="1216"/>
      <point x="150" y="1154" type="curve"/>
    </contour>
    <contour>
      <point x="238" y="0" type="curve"/>
      <point x="770" y="0" type="line"/>
      <point x="776" y="138"/>
      <point x="788" y="258"/>
      <point x="824" y="426" type="curve"/>
      <point x="924" y="898" type="line"/>
      <point x="956" y="1056"/>
      <point x="998" y="1214"/>
      <point x="1060" y="1380" type="curve"/>
      <point x="808" y="1392" type="line"/>
      <point x="506" y="1194" type="line"/>
      <point x="494" y="1062"/>
      <point x="470" y="932"/>
      <point x="442" y="800" type="curve"/>
      <point x="364" y="426" type="line"/>
      <point x="328" y="258"/>
      <point x="290" y="138"/>
    </contour>
  </outline>
</glyph>
<glyph name="four" format="2">
  <advance width="1258"/>
  <unicode hex="0034"/>
  <outline>
    <contour>
      <point x="468" y="0" type="curve"/>
      <point x="1000" y="0" type="line"/>
      <point x="996" y="138"/>
      <point x="1018" y="258"/>
      <point x="1054" y="426" type="curve"/>
      <point x="1154" y="898" type="line"/>
      <point x="1186" y="1056"/>
      <point x="1224" y="1214"/>
      <point x="1290" y="1380" type="curve"/>
      <point x="752" y="1380" type="line"/>
      <point x="708" y="1302"/>
      <point x="642" y="1226"/>
      <point x="574" y="1150" type="curve"/>
      <point x="374" y="926" type="line"/>
      <point x="276" y="816"/>
      <point x="142" y="670"/>
      <point x="56" y="596" type="curve"/>
      <point x="-14" y="260" type="line"/>
      <point x="710" y="260" type="line"/>
      <point x="842" y="260"/>
      <point x="1032" y="256"/>
      <point x="1148" y="236" type="curve"/>
      <point x="1240" y="672" type="line"/>
      <point x="1116" y="650"/>
      <point x="922" y="648"/>
      <point x="790" y="648" type="curve"/>
      <point x="746" y="608" type="line"/>
      <point x="414" y="608" type="line"/>
      <point x="450" y="582" type="line"/>
      <point x="504" y="658"/>
      <point x="570" y="736"/>
      <point x="638" y="812" type="curve"/>
      <point x="892" y="1094" type="line"/>
      <point x="972" y="1184"/>
      <point x="1046" y="1260"/>
      <point x="1122" y="1320" type="curve"/>
      <point x="766" y="1194" type="line"/>
      <point x="764" y="1062"/>
      <point x="740" y="932"/>
      <point x="712" y="800" type="curve"/>
      <point x="646" y="482" type="line"/>
      <point x="594" y="426" type="line"/>
      <point x="558" y="258"/>
      <point x="532" y="138"/>
    </contour>
  </outline>
</glyph>
<glyph name="greater" format="2">
  <advance width="1180"/>
  <unicode hex="003E"/>
  <outline>
    <contour>
      <point x="-16" y="46" type="line"/>
      <point x="148" y="118"/>
      <point x="302" y="170"/>
      <point x="434" y="214" type="curve"/>
      <point x="636" y="280" type="line"/>
      <point x="770" y="324"/>
      <point x="922" y="372"/>
      <point x="1080" y="408" type="curve"/>
      <point x="1170" y="828" type="line"/>
      <point x="1026" y="864"/>
      <point x="896" y="912"/>
      <point x="780" y="956" type="curve"/>
      <point x="608" y="1022" type="line"/>
      <point x="494" y="1066"/>
      <point x="360" y="1118"/>
      <point x="226" y="1190" type="curve"/>
      <point x="136" y="770" type="line"/>
      <point x="226" y="758"/>
      <point x="318" y="728"/>
      <point x="404" y="698" type="curve"/>
      <point x="542" y="650" type="line"/>
      <point x="536" y="618" type="line"/>
      <point x="380" y="574" type="line"/>
      <point x="278" y="544"/>
      <point x="174" y="518"/>
      <point x="80" y="506" type="curve"/>
    </contour>
  </outline>
</glyph>
<glyph name="A" format="2">
  <advance width="1506"/>
  <unicode hex="0041"/>
  <anchor x="648" y="0" name="bottom"/>
  <anchor x="1400" y="0" name="ogonek"/>
  <anchor x="944" y="1426" name="top"/>
  <outline>
    <contour>
      <point x="-114" y="0" type="curve"/>
      <point x="480" y="0" type="line"/>
      <point x="510" y="136"/>
      <point x="552" y="280"/>
      <point x="606" y="414" type="curve"/>
      <point x="852" y="1020" type="line"/>
      <point x="884" y="1020" type="line"/>
      <point x="888" y="410" type="line"/>
      <point x="888" y="280"/>
      <point x="880" y="138"/>
      <point x="850" y="0" type="curve"/>
      <point x="1412" y="0" type="line"/>
      <point x="1380" y="150"/>
      <point x="1346" y="326"/>
      <point x="1334" y="478" type="curve"/>
      <point x="1294" y="972" type="line"/>
      <point x="1280" y="1148"/>
      <point x="1282" y="1274"/>
      <point x="1300" y="1426" type="curve"/>
      <point x="594" y="1426" type="line"/>
      <point x="548" y="1274"/>
      <point x="490" y="1142"/>
      <point x="404" y="970" type="curve"/>
      <point x="162" y="486" type="line"/>
      <point x="84" y="332"/>
      <point x="-14" y="150"/>
    </contour>
    <contour>
      <point x="398" y="232" type="line"/>
      <point x="1044" y="232" type="line"/>
      <point x="1072" y="592" type="line"/>
      <point x="528" y="592" type="line"/>
    </contour>
  </outline>
</glyph>
<glyph name="L" format="2">
  <advance width="1158"/>
  <unicode hex="004C"/>
  <anchor x="490" y="0" name="bottom"/>
  <anchor x="956" y="720" name="center"/>
  <anchor x="708" y="1426" name="top"/>
  <anchor x="758" y="1004" name="topright"/>
  <outline>
    <contour>
      <point x="-42" y="0" type="curve"/>
      <point x="526" y="0" type="line"/>
      <point x="544" y="80" type="line"/>
      <point x="548" y="228"/>
      <point x="564" y="356"/>
      <point x="602" y="538" type="curve"/>
      <point x="688" y="948" type="line"/>
      <point x="728" y="1138"/>
      <point x="768" y="1272"/>
      <point x="826" y="1426" type="curve"/>
      <point x="258" y="1426" type="line"/>
      <point x="250" y="1272"/>
      <point x="236" y="1138"/>
      <point x="196" y="948" type="curve"/>
      <point x="92" y="458" type="line"/>
      <point x="54" y="276"/>
      <point x="14" y="148"/>
    </contour>
    <contour>
      <point x="424" y="0" type="line"/>
      <point x="1004" y="0" type="line"/>
      <point x="1104" y="474" type="line"/>
      <point x="972" y="440"/>
      <point x="864" y="424"/>
      <point x="682" y="424" type="curve"/>
      <point x="514" y="424" type="line"/>
    </contour>
  </outline>
</glyph>
<glyph name="W" format="2">
  <advance width="2142"/>
  <unicode hex="0057"/>
  <anchor x="958" y="0" name="bottom"/>
  <anchor x="1258" y="1426" name="top"/>
  <outline>
    <contour>
      <point x="236" y="0" type="curve"/>
      <point x="856" y="0" type="line"/>
      <point x="878" y="120"/>
      <point x="914" y="262"/>
      <point x="956" y="376" type="curve"/>
      <point x="1078" y="716" type="line"/>
      <point x="1110" y="716" type="line"/>
      <point x="1094" y="376" type="line"/>
      <point x="1088" y="258"/>
      <point x="1072" y="120"/>
      <point x="1050" y="0" type="curve"/>
      <point x="1694" y="0" type="line"/>
      <point x="1736" y="140"/>
      <point x="1810" y="308"/>
      <point x="1874" y="450" type="curve"/>
      <point x="2078" y="900" type="line"/>
      <point x="2148" y="1056"/>
      <point x="2252" y="1264"/>
      <point x="2358" y="1426" type="curve"/>
      <point x="1718" y="1426" type="line"/>
      <point x="1692" y="1286"/>
      <point x="1654" y="1124"/>
      <point x="1610" y="984" type="curve"/>
      <point x="1484" y="584" type="line"/>
      <point x="1452" y="584" type="line"/>
      <point x="1480" y="980" type="line"/>
      <point x="1490" y="1122"/>
      <point x="1508" y="1286"/>
      <point x="1538" y="1426" type="curve"/>
      <point x="978" y="1426" type="line"/>
      <point x="948" y="1286"/>
      <point x="900" y="1120"/>
      <point x="854" y="984" type="curve"/>
      <point x="718" y="584" type="line"/>
      <point x="686" y="584" type="line"/>
      <point x="726" y="980" type="line"/>
      <point x="740" y="1122"/>
      <point x="768" y="1288"/>
      <point x="802" y="1426" type="curve"/>
      <point x="176" y="1426" type="line"/>
      <point x="222" y="1262"/>
      <point x="234" y="1056"/>
      <point x="240" y="900" type="curve"/>
      <point x="252" y="450" type="line"/>
      <point x="256" y="310"/>
      <point x="252" y="144"/>
    </contour>
  </outline>
</glyph>
<glyph name="backslash" format="2">
  <advance width="970"/>
  <unicode hex="005C"/>
  <outline>
    <contour>
      <point x="416" y="0" type="curve"/>
      <point x="886" y="0" type="line"/>
      <point x="834" y="148"/>
      <point x="800" y="274"/>
      <point x="772" y="456" type="curve"/>
      <point x="692" y="952" type="line"/>
      <point x="662" y="1140"/>
      <point x="646" y="1272"/>
      <point x="652" y="1426" type="curve"/>
      <point x="186" y="1426" type="line"/>
      <point x="242" y="1272"/>
      <point x="268" y="1142"/>
      <point x="298" y="948" type="curve"/>
      <point x="376" y="456" type="line"/>
      <point x="406" y="274"/>
      <point x="422" y="148"/>
    </contour>
  </outline>
</glyph>
<glyph name="asciicircum" format="2">
  <advance width="1316"/>
  <unicode hex="005E"/>
  <outline>
    <contour>
      <point x="932" y="678" type="curve"/>
      <point x="1284" y="682" type="line"/>
      <point x="1208" y="916"/>
      <point x="1136" y="1146"/>
      <point x="1098" y="1380" type="curve"/>
      <point x="508" y="1380" type="line"/>
      <point x="402" y="1152"/>
      <point x="254" y="914"/>
      <point x="110" y="686" type="curve"/>
      <point x="506" y="686" type="line"/>
      <point x="598" y="794"/>
      <point x="674" y="898"/>
      <point x="750" y="1006" type="curve"/>
      <point x="780" y="1006" type="line"/>
      <point x="826" y="896"/>
      <point x="870" y="788"/>
    </contour>
  </outline>
</glyph>
<glyph name="b" format="2">
  <advance width="1196"/>
  <unicode hex="0062"/>
  <outline>
    <contour>
      <point x="706" y="-32" type="curve" smooth="yes"/>
      <point x="938" y="-32"/>
      <point x="1090" y="182"/>
      <point x="1150" y="464" type="curve" smooth="yes"/>
      <point x="1214" y="768"/>
      <point x="1130" y="1036"/>
      <point x="870" y="1036" type="curve" smooth="yes"/>
      <point x="796" y="1036"/>
      <point x="712" y="998"/>
      <point x="642" y="912" type="curve"/>
      <point x="610" y="912" type="line"/>
      <point x="626" y="986" type="line"/>
      <point x="666" y="1178"/>
      <point x="724" y="1350"/>
      <point x="782" y="1504" type="curve"/>
      <point x="212" y="1464" type="line"/>
      <point x="230" y="1298"/>
      <point x="214" y="1144"/>
      <point x="182" y="986" type="curve"/>
      <point x="64" y="426" type="line"/>
      <point x="28" y="258"/>
      <point x="-10" y="138"/>
      <point x="-62" y="0" type="curve"/>
      <point x="318" y="0" type="line"/>
      <point x="396" y="114" type="line"/>
      <point x="422" y="114" type="line"/>
      <point x="484" y="16"/>
      <point x="606" y="-32"/>
    </contour>
    <contour>
      <point x="568" y="344" type="curve"/>
      <point x="538" y="348"/>
      <point x="512" y="360"/>
      <point x="500" y="380" type="curve"/>
      <point x="548" y="610" type="line"/>
      <point x="568" y="644"/>
      <point x="600" y="664"/>
      <point x="632" y="666" type="curve"/>
      <point x="694" y="660"/>
      <point x="718" y="574"/>
      <point x="702" y="496" type="curve" smooth="yes"/>
      <point x="684" y="410"/>
      <point x="636" y="352"/>
    </contour>
  </outline>
</glyph>
<glyph name="d" format="2">
  <advance width="1188"/>
  <unicode hex="0064"/>
  <anchor x="538" y="0" name="bottom"/>
  <anchor x="592" y="502" name="center"/>
  <anchor x="846" y="1466" name="top"/>
  <anchor x="1260" y="1004" name="topright"/>
  <outline>
    <contour>
      <point x="328" y="-32" type="curve" smooth="yes"/>
      <point x="420" y="-32"/>
      <point x="526" y="16"/>
      <point x="614" y="126" type="curve"/>
      <point x="640" y="126" type="line"/>
      <point x="638" y="0" type="line"/>
      <point x="1046" y="0" type="line"/>
      <point x="1052" y="138"/>
      <point x="1064" y="258"/>
      <point x="1100" y="426" type="curve"/>
      <point x="1218" y="986" type="line"/>
      <point x="1258" y="1178"/>
      <point x="1316" y="1350"/>
      <point x="1374" y="1504" type="curve"/>
      <point x="804" y="1464" type="line"/>
      <point x="822" y="1298"/>
      <point x="806" y="1144"/>
      <point x="774" y="986" type="curve"/>
      <point x="758" y="912" type="line"/>
      <point x="726" y="912" type="line"/>
      <point x="674" y="996"/>
      <point x="574" y="1036"/>
      <point x="492" y="1036" type="curve" smooth="yes"/>
      <point x="260" y="1036"/>
      <point x="108" y="822"/>
      <point x="48" y="540" type="curve" smooth="yes"/>
      <point x="-16" y="236"/>
      <point x="68" y="-32"/>
    </contour>
    <contour>
      <point x="566" y="338" type="curve"/>
      <point x="504" y="344"/>
      <point x="480" y="430"/>
      <point x="496" y="508" type="curve" smooth="yes"/>
      <point x="514" y="594"/>
      <point x="562" y="652"/>
      <point x="630" y="660" type="curve"/>
      <point x="660" y="656"/>
      <point x="686" y="644"/>
      <point x="698" y="624" type="curve"/>
      <point x="650" y="394" type="line"/>
      <point x="630" y="360"/>
      <point x="598" y="340"/>
    </contour>
  </outline>
</glyph>
<glyph name="k" format="2">
  <advance width="1234"/>
  <unicode hex="006B"/>
  <anchor x="502" y="0" name="bottom"/>
  <anchor x="810" y="1466" name="top"/>
  <outline>
    <contour>
      <point x="588" y="0" type="curve"/>
      <point x="1152" y="0" type="line"/>
      <point x="1072" y="126"/>
      <point x="1012" y="254"/>
      <point x="958" y="380" type="curve"/>
      <point x="844" y="642" type="line"/>
      <point x="908" y="452" type="line"/>
      <point x="1044" y="634" type="line"/>
      <point x="1138" y="758"/>
      <point x="1232" y="880"/>
      <point x="1342" y="1004" type="curve"/>
      <point x="768" y="1004" type="line"/>
      <point x="746" y="924"/>
      <point x="708" y="846"/>
      <point x="666" y="766" type="curve"/>
      <point x="596" y="636" type="line"/>
      <point x="520" y="636" type="line"/>
      <point x="460" y="352" type="line"/>
      <point x="540" y="352" type="line"/>
      <point x="568" y="216" type="line"/>
      <point x="584" y="144"/>
      <point x="594" y="72"/>
    </contour>
    <contour>
      <point x="-62" y="0" type="curve"/>
      <point x="454" y="0" type="line"/>
      <point x="458" y="114"/>
      <point x="466" y="214"/>
      <point x="488" y="332" type="curve"/>
      <point x="626" y="986" type="line"/>
      <point x="666" y="1178"/>
      <point x="724" y="1350"/>
      <point x="782" y="1504" type="curve"/>
      <point x="212" y="1464" type="line"/>
      <point x="230" y="1298"/>
      <point x="214" y="1144"/>
      <point x="182" y="986" type="curve"/>
      <point x="64" y="426" type="line"/>
      <point x="28" y="258"/>
      <point x="-10" y="138"/>
    </contour>
  </outline>
</glyph>
<glyph name="l" format="2">
  <advance width="604"/>
  <unicode hex="006C"/>
  <anchor x="196" y="0" name="bottom"/>
  <anchor x="380" y="818" name="center"/>
  <anchor x="488" y="1466" name="top"/>
  <anchor x="658" y="1004" name="topright"/>
  <outline>
    <contour>
      <point x="-62" y="0" type="curve"/>
      <point x="454" y="0" type="line"/>
      <point x="460" y="138"/>
      <point x="472" y="258"/>
      <point x="508" y="426" type="curve"/>
      <point x="626" y="986" type="line"/>
      <point x="666" y="1178"/>
      <point x="724" y="1350"/>
      <point x="782" y="1504" type="curve"/>
      <point x="212" y="1464" type="line"/>
      <point x="230" y="1298"/>
      <point x="214" y="1144"/>
      <point x="182" y="986" type="curve"/>
      <point x="64" y="426" type="line"/>
      <point x="28" y="258"/>
      <point x="-10" y="138"/>
    </contour>
  </outline>
</glyph>
<glyph name="m" format="2">
  <advance width="1782"/>
  <unicode hex="006D"/>
  <anchor x="790" y="0" name="bottom"/>
  <anchor x="1002" y="1004" name="top"/>
  <outline>
    <contour>
      <point x="-54" y="0" type="curve"/>
      <point x="462" y="0" type="line"/>
      <point x="468" y="138"/>
      <point x="480" y="258"/>
      <point x="510" y="400" type="curve"/>
      <point x="548" y="582" type="line"/>
      <point x="582" y="616"/>
      <point x="620" y="636"/>
      <point x="638" y="636" type="curve" smooth="yes"/>
      <point x="682" y="636"/>
      <point x="690" y="578"/>
      <point x="666" y="476" type="curve"/>
      <point x="652" y="400" type="line"/>
      <point x="622" y="258"/>
      <point x="586" y="138"/>
      <point x="538" y="0" type="curve"/>
      <point x="1050" y="0" type="line"/>
      <point x="1050" y="138"/>
      <point x="1066" y="258"/>
      <point x="1102" y="426" type="curve"/>
      <point x="1118" y="504"/>
      <point x="1148" y="594"/>
      <point x="1160" y="652" type="curve" smooth="yes"/>
      <point x="1174" y="716"/>
      <point x="1176" y="774"/>
      <point x="1168" y="824" type="curve"/>
      <point x="1150" y="824" type="line"/>
      <point x="1138" y="954"/>
      <point x="1054" y="1036"/>
      <point x="908" y="1036" type="curve" smooth="yes"/>
      <point x="804" y="1036"/>
      <point x="678" y="970"/>
      <point x="586" y="862" type="curve"/>
      <point x="552" y="862" type="line"/>
      <point x="562" y="1024" type="line"/>
      <point x="126" y="1004" type="line"/>
      <point x="142" y="838"/>
      <point x="126" y="684"/>
      <point x="94" y="526" type="curve"/>
      <point x="72" y="426" type="line"/>
      <point x="36" y="258"/>
      <point x="-2" y="138"/>
    </contour>
    <contour>
      <point x="1124" y="0" type="curve"/>
      <point x="1636" y="0" type="line"/>
      <point x="1636" y="138"/>
      <point x="1652" y="258"/>
      <point x="1688" y="426" type="curve"/>
      <point x="1704" y="504"/>
      <point x="1734" y="594"/>
      <point x="1746" y="652" type="curve" smooth="yes"/>
      <point x="1794" y="880"/>
      <point x="1700" y="1036"/>
      <point x="1494" y="1036" type="curve" smooth="yes"/>
      <point x="1390" y="1036"/>
      <point x="1266" y="970"/>
      <point x="1174" y="862" type="curve"/>
      <point x="1138" y="862" type="line"/>
      <point x="1134" y="582" type="line"/>
      <point x="1168" y="616"/>
      <point x="1206" y="636"/>
      <point x="1224" y="636" type="curve" smooth="yes"/>
      <point x="1268" y="636"/>
      <point x="1276" y="578"/>
      <point x="1252" y="476" type="curve"/>
      <point x="1238" y="400" type="line"/>
      <point x="1208" y="258"/>
      <point x="1172" y="138"/>
    </contour>
  </outline>
</glyph>
<glyph name="n" format="2">
  <advance width="1204"/>
  <unicode hex="006E"/>
  <anchor x="492" y="0" name="bottom"/>
  <anchor x="704" y="1004" name="top"/>
  <outline>
    <contour>
      <point x="-54" y="0" type="curve"/>
      <point x="462" y="0" type="line"/>
      <point x="468" y="138"/>
      <point x="480" y="258"/>
      <point x="510" y="400" type="curve"/>
      <point x="548" y="582" type="line"/>
      <point x="582" y="616"/>
      <point x="624" y="636"/>
      <point x="642" y="636" type="curve" smooth="yes"/>
      <point x="690" y="636"/>
      <point x="698" y="578"/>
      <point x="674" y="476" type="curve"/>
      <point x="660" y="400" type="line"/>
      <point x="630" y="258"/>
      <point x="594" y="138"/>
      <point x="546" y="0" type="curve"/>
      <point x="1058" y="0" type="line"/>
      <point x="1058" y="138"/>
      <point x="1074" y="258"/>
      <point x="1110" y="426" type="curve"/>
      <point x="1126" y="504"/>
      <point x="1156" y="594"/>
      <point x="1168" y="652" type="curve" smooth="yes"/>
      <point x="1216" y="880"/>
      <point x="1122" y="1036"/>
      <point x="912" y="1036" type="curve" smooth="yes"/>
      <point x="804" y="1036"/>
      <point x="680" y="970"/>
      <point x="586" y="862" type="curve"/>
      <point x="552" y="862" type="line"/>
      <point x="562" y="1024" type="line"/>
      <point x="126" y="1004" type="line"/>
      <point x="142" y="838"/>
      <point x="126" y="684"/>
      <point x="94" y="526" type="curve"/>
      <point x="72" y="426" type="line"/>
      <point x="36" y="258"/>
      <point x="-2" y="138"/>
    </contour>
  </outline>
</glyph>
<glyph name="p" format="2">
  <advance width="1204"/>
  <unicode hex="0070"/>
  <outline>
    <contour>
      <point x="-136" y="-396" type="curve"/>
      <point x="392" y="-384" type="line"/>
      <point x="390" y="-246"/>
      <point x="400" y="-126"/>
      <point x="430" y="16" type="curve"/>
      <point x="446" y="90" type="line"/>
      <point x="470" y="90" type="line"/>
      <point x="524" y="8"/>
      <point x="628" y="-32"/>
      <point x="714" y="-32" type="curve" smooth="yes"/>
      <point x="946" y="-32"/>
      <point x="1098" y="182"/>
      <point x="1158" y="464" type="curve" smooth="yes"/>
      <point x="1222" y="768"/>
      <point x="1138" y="1036"/>
      <point x="878" y="1036" type="curve" smooth="yes"/>
      <point x="788" y="1036"/>
      <point x="688" y="988"/>
      <point x="604" y="880" type="curve"/>
      <point x="570" y="880" type="line"/>
      <point x="580" y="1024" type="line"/>
      <point x="126" y="1004" type="line"/>
      <point x="142" y="838"/>
      <point x="126" y="684"/>
      <point x="94" y="526" type="curve"/>
      <point x="-8" y="42" type="line"/>
      <point x="-44" y="-126"/>
      <point x="-84" y="-258"/>
    </contour>
    <contour>
      <point x="576" y="344" type="curve"/>
      <point x="546" y="348"/>
      <point x="520" y="360"/>
      <point x="508" y="380" type="curve"/>
      <point x="556" y="610" type="line"/>
      <point x="576" y="644"/>
      <point x="608" y="664"/>
      <point x="640" y="666" type="curve"/>
      <point x="702" y="660"/>
      <point x="726" y="574"/>
      <point x="710" y="496" type="curve" smooth="yes"/>
      <point x="692" y="410"/>
      <point x="644" y="352"/>
    </contour>
  </outline>
</glyph>
<glyph name="s" format="2">
  <advance width="956"/>
  <unicode hex="0073"/>
  <anchor x="380" y="0" name="bottom"/>
  <anchor x="592" y="1004" name="top"/>
  <outline>
    <contour>
      <point x="424" y="-32" type="curve" smooth="yes"/>
      <point x="712" y="-32"/>
      <point x="846" y="84"/>
      <point x="880" y="242" type="curve" smooth="yes"/>
      <point x="916" y="406"/>
      <point x="856" y="484"/>
      <point x="638" y="572" type="curve" smooth="yes"/>
      <point x="548" y="608"/>
      <point x="534" y="630"/>
      <point x="540" y="662" type="curve" smooth="yes"/>
      <point x="544" y="682"/>
      <point x="570" y="696"/>
      <point x="604" y="700" type="curve"/>
      <point x="650" y="700"/>
      <point x="752" y="664"/>
      <point x="866" y="592" type="curve"/>
      <point x="966" y="950" type="line"/>
      <point x="876" y="978"/>
      <point x="680" y="1034"/>
      <point x="536" y="1034" type="curve" smooth="yes"/>
      <point x="276" y="1034"/>
      <point x="138" y="930"/>
      <point x="102" y="760" type="curve" smooth="yes"/>
      <point x="68" y="602"/>
      <point x="118" y="490"/>
      <point x="310" y="414" type="curve" smooth="yes"/>
      <point x="418" y="370"/>
      <point x="452" y="348"/>
      <point x="444" y="316" type="curve" smooth="yes"/>
      <point x="438" y="292"/>
      <point x="406" y="286"/>
      <point x="368" y="282" type="curve"/>
      <point x="304" y="282"/>
      <point x="154" y="340"/>
      <point x="58" y="406" type="curve"/>
      <point x="-36" y="52" type="line"/>
      <point x="60" y="22"/>
      <point x="216" y="-32"/>
    </contour>
  </outline>
</glyph>
<glyph name="w" format="2">
  <advance width="1730"/>
  <unicode hex="0077"/>
  <anchor x="748" y="0" name="bottom"/>
  <anchor x="958" y="1004" name="top"/>
  <outline>
    <contour>
      <point x="176" y="0" type="curve"/>
      <point x="668" y="0" type="line"/>
      <point x="684" y="84"/>
      <point x="712" y="172"/>
      <point x="742" y="256" type="curve"/>
      <point x="800" y="418" type="line"/>
      <point x="828" y="418" type="line"/>
      <point x="822" y="266" type="line"/>
      <point x="818" y="178"/>
      <point x="812" y="84"/>
      <point x="794" y="0" type="curve"/>
      <point x="1334" y="0" type="line"/>
      <point x="1376" y="124"/>
      <point x="1438" y="252"/>
      <point x="1506" y="384" type="curve"/>
      <point x="1596" y="558" type="line"/>
      <point x="1674" y="710"/>
      <point x="1750" y="854"/>
      <point x="1850" y="1004" type="curve"/>
      <point x="1304" y="1004" type="line"/>
      <point x="1288" y="906"/>
      <point x="1250" y="780"/>
      <point x="1214" y="670" type="curve"/>
      <point x="1144" y="454" type="line"/>
      <point x="1114" y="454" type="line"/>
      <point x="1128" y="666" type="line"/>
      <point x="1136" y="778"/>
      <point x="1148" y="896"/>
      <point x="1172" y="1004" type="curve"/>
      <point x="724" y="1004" type="line"/>
      <point x="708" y="892"/>
      <point x="672" y="782"/>
      <point x="634" y="666" type="curve"/>
      <point x="564" y="454" type="line"/>
      <point x="534" y="454" type="line"/>
      <point x="548" y="666" type="line"/>
      <point x="556" y="778"/>
      <point x="568" y="904"/>
      <point x="592" y="1016" type="curve"/>
      <point x="84" y="1004" type="line"/>
      <point x="122" y="854"/>
      <point x="138" y="708"/>
      <point x="150" y="558" type="curve"/>
      <point x="164" y="382" type="line"/>
      <point x="174" y="254"/>
      <point x="182" y="126"/>
    </contour>
  </outline>
</glyph>
<glyph name="x" format="2">
  <advance width="1226"/>
  <unicode hex="0078"/>
  <outline>
    <contour>
      <point x="-106" y="0" type="curve"/>
      <point x="464" y="0" type="line"/>
      <point x="474" y="64"/>
      <point x="486" y="108"/>
      <point x="512" y="176" type="curve"/>
      <point x="560" y="294" type="line"/>
      <point x="586" y="294" type="line"/>
      <point x="594" y="166" type="line"/>
      <point x="598" y="104"/>
      <point x="598" y="58"/>
      <point x="588" y="0" type="curve"/>
      <point x="1128" y="0" type="line"/>
      <point x="1056" y="136"/>
      <point x="1022" y="224"/>
      <point x="986" y="322" type="curve"/>
      <point x="896" y="568" type="line"/>
      <point x="902" y="482" type="line"/>
      <point x="1076" y="702" type="line"/>
      <point x="1156" y="802"/>
      <point x="1212" y="870"/>
      <point x="1330" y="1004" type="curve"/>
      <point x="758" y="1004" type="line"/>
      <point x="746" y="940"/>
      <point x="728" y="892"/>
      <point x="698" y="824" type="curve"/>
      <point x="646" y="706" type="line"/>
      <point x="616" y="706" type="line"/>
      <point x="604" y="826" type="line"/>
      <point x="598" y="892"/>
      <point x="596" y="950"/>
      <point x="604" y="1016" type="curve"/>
      <point x="98" y="1004" type="line"/>
      <point x="160" y="878"/>
      <point x="188" y="800"/>
      <point x="220" y="700" type="curve"/>
      <point x="292" y="482" type="line"/>
      <point x="310" y="568" type="line"/>
      <point x="146" y="328" type="line"/>
      <point x="70" y="218"/>
      <point x="14" y="142"/>
    </contour>
  </outline>
</glyph>
<glyph name="sterling" format="2">
  <advance width="1246"/>
  <unicode hex="00A3"/>
  <outline>
    <contour>
      <point x="-36" y="0" type="line"/>
      <point x="1080" y="0" type="line"/>
      <point x="1174" y="442" type="line"/>
      <point x="1012" y="404"/>
      <point x="876" y="400"/>
      <point x="644" y="400" type="curve"/>
      <point x="390" y="400" type="line"/>
      <point x="454" y="340" type="line"/>
      <point x="658" y="456"/>
      <point x="690" y="552"/>
      <point x="708" y="638" type="curve" smooth="yes"/>
      <point x="750" y="848" type="line" smooth="yes"/>
      <point x="774" y="964"/>
      <point x="846" y="1018"/>
      <point x="944" y="1026" type="curve"/>
      <point x="988" y="1026"/>
      <point x="1076" y="1004"/>
      <point x="1198" y="946" type="curve"/>
      <point x="1324" y="1348" type="line"/>
      <point x="1218" y="1374"/>
      <point x="1042" y="1412"/>
      <point x="890" y="1412" type="curve" smooth="yes"/>
      <point x="544" y="1412"/>
      <point x="342" y="1228"/>
      <point x="276" y="906" type="curve" smooth="yes"/>
      <point x="252" y="790"/>
      <point x="234" y="622"/>
      <point x="204" y="478" type="curve"/>
      <point x="188" y="416"/>
      <point x="162" y="330"/>
      <point x="14" y="240" type="curve"/>
    </contour>
    <contour>
      <point x="96" y="548" type="line"/>
      <point x="248" y="562"/>
      <point x="392" y="564"/>
      <point x="516" y="564" type="curve"/>
      <point x="604" y="564" type="line"/>
      <point x="728" y="564"/>
      <point x="868" y="562"/>
      <point x="1016" y="548" type="curve"/>
      <point x="1086" y="880" type="line"/>
      <point x="934" y="866"/>
      <point x="790" y="864"/>
      <point x="666" y="864" type="curve"/>
      <point x="578" y="864" type="line"/>
      <point x="454" y="864"/>
      <point x="314" y="866"/>
      <point x="166" y="880" type="curve"/>
    </contour>
  </outline>
</glyph>
<glyph name="currency" format="2">
  <advance width="1368"/>
  <unicode hex="00A4"/>
  <outline>
    <contour>
      <point x="676" y="150" type="curve" smooth="yes"/>
      <point x="966" y="150"/>
      <point x="1156" y="272"/>
      <point x="1218" y="562" type="curve" smooth="yes"/>
      <point x="1280" y="856"/>
      <point x="1074" y="1126"/>
      <point x="742" y="1126" type="curve" smooth="yes"/>
      <point x="452" y="1126"/>
      <point x="264" y="1004"/>
      <point x="202" y="714" type="curve" smooth="yes"/>
      <point x="140" y="420"/>
      <point x="344" y="150"/>
    </contour>
    <contour>
      <point x="314" y="-22" type="line"/>
      <point x="414" y="90"/>
      <point x="516" y="188"/>
      <point x="608" y="274" type="curve"/>
      <point x="340" y="558" type="line"/>
      <point x="250" y="474"/>
      <point x="144" y="380"/>
      <point x="26" y="288" type="curve"/>
    </contour>
    <contour>
      <point x="704" y="506" type="curve"/>
      <point x="620" y="518"/>
      <point x="566" y="584"/>
      <point x="582" y="662" type="curve" smooth="yes"/>
      <point x="594" y="722"/>
      <point x="644" y="766"/>
      <point x="722" y="776" type="curve"/>
      <point x="810" y="762"/>
      <point x="858" y="692"/>
      <point x="844" y="622" type="curve" smooth="yes"/>
      <point x="830" y="548"/>
      <point x="780" y="510"/>
    </contour>
    <contour>
      <point x="380" y="720" type="curve"/>
      <point x="658" y="978" type="line"/>
      <point x="572" y="1070"/>
      <point x="478" y="1174"/>
      <point x="386" y="1294" type="curve"/>
      <point x="84" y="1012" type="line"/>
      <point x="198" y="912"/>
      <point x="296" y="810"/>
    </contour>
    <contour>
      <point x="1042" y="-14" type="curve"/>
      <point x="1344" y="268" type="line"/>
      <point x="1230" y="368"/>
      <point x="1132" y="470"/>
      <point x="1048" y="560" type="curve"/>
      <point x="770" y="302" type="line"/>
      <point x="856" y="210"/>
      <point x="950" y="106"/>
    </contour>
    <contour>
      <point x="1088" y="722" type="line"/>
      <point x="1178" y="806"/>
      <point x="1284" y="900"/>
      <point x="1402" y="992" type="curve"/>
      <point x="1114" y="1302" type="line"/>
      <point x="1014" y="1190"/>
      <point x="912" y="1092"/>
      <point x="820" y="1006" type="curve"/>
    </contour>
  </outline>
</glyph>
<glyph name="yen" format="2">
  <advance width="1366"/>
  <unicode hex="00A5"/>
  <outline>
    <contour>
      <point x="472" y="440" type="line"/>
      <point x="882" y="440" type="line"/>
      <point x="1266" y="1008" type="line"/>
      <point x="1354" y="1138"/>
      <point x="1438" y="1262"/>
      <point x="1552" y="1380" type="curve"/>
      <point x="934" y="1380" type="line"/>
      <point x="910" y="1250"/>
      <point x="886" y="1190"/>
      <point x="842" y="1088" type="curve"/>
      <point x="770" y="920" type="line"/>
      <point x="742" y="920" type="line"/>
      <point x="732" y="1076" type="line"/>
      <point x="726" y="1170"/>
      <point x="728" y="1254"/>
      <point x="750" y="1380" type="curve"/>
      <point x="182" y="1380" type="line"/>
      <point x="270" y="1188"/>
      <point x="290" y="1114"/>
      <point x="320" y="1002" type="curve"/>
    </contour>
    <contour>
      <point x="312" y="0" type="curve"/>
      <point x="852" y="0" type="line"/>
      <point x="848" y="142"/>
      <point x="872" y="264"/>
      <point x="908" y="434" type="curve"/>
      <point x="990" y="822" type="line"/>
      <point x="522" y="822" type="line"/>
      <point x="440" y="436" type="line"/>
      <point x="404" y="266"/>
      <point x="376" y="142"/>
    </contour>
    <contour>
      <point x="58" y="178" type="line"/>
      <point x="210" y="192"/>
      <point x="352" y="194"/>
      <point x="476" y="194" type="curve"/>
      <point x="764" y="194" type="line"/>
      <point x="888" y="194"/>
      <point x="1030" y="192"/>
      <point x="1178" y="178" type="curve"/>
      <point x="1238" y="460" type="line"/>
      <point x="1086" y="456"/>
      <point x="944" y="454"/>
      <point x="820" y="454" type="curve"/>
      <point x="532" y="454" type="line"/>
      <point x="408" y="454"/>
      <point x="266" y="456"/>
      <point x="118" y="460" type="curve"/>
    </contour>
    <contour>
      <point x="136" y="546" type="line"/>
      <point x="286" y="550"/>
      <point x="428" y="552"/>
      <point x="552" y="552" type="curve"/>
      <point x="840" y="552" type="line"/>
      <point x="964" y="552"/>
      <point x="1106" y="550"/>
      <point x="1256" y="546" type="curve"/>
      <point x="1316" y="828" type="line"/>
      <point x="1162" y="814"/>
      <point x="1020" y="812"/>
      <point x="896" y="812" type="curve"/>
      <point x="608" y="812" type="line"/>
      <point x="484" y="812"/>
      <point x="342" y="814"/>
      <point x="196" y="828" type="curve"/>
    </contour>
  </outline>
</glyph>
<glyph name="brokenbar" format="2">
  <advance width="604"/>
  <unicode hex="00A6"/>
  <outline>
    <contour>
      <point x="156" y="712" type="line"/>
      <point x="536" y="712" type="line"/>
      <point x="576" y="894" type="line"/>
      <point x="622" y="1110"/>
      <point x="668" y="1318"/>
      <point x="740" y="1552" type="curve"/>
      <point x="312" y="1552" type="line"/>
      <point x="284" y="1318"/>
      <point x="242" y="1110"/>
      <point x="196" y="894" type="curve"/>
    </contour>
    <contour>
      <point x="-88" y="-328" type="curve"/>
      <point x="340" y="-328" type="line"/>
      <point x="368" y="-94"/>
      <point x="410" y="114"/>
      <point x="456" y="330" type="curve"/>
      <point x="494" y="512" type="line"/>
      <point x="114" y="512" type="line"/>
      <point x="76" y="330" type="line"/>
      <point x="30" y="114"/>
      <point x="-18" y="-94"/>
    </contour>
  </outline>
</glyph>
<glyph name="section" format="2">
  <advance width="1234"/>
  <unicode hex="00A7"/>
  <outline>
    <contour>
      <point x="430" y="-272" type="curve" smooth="yes"/>
      <point x="756" y="-272"/>
      <point x="912" y="-140"/>
      <point x="952" y="48" type="curve" smooth="yes"/>
      <point x="1000" y="270"/>
      <point x="908" y="370"/>
      <point x="658" y="472" type="curve" smooth="yes"/>
      <point x="526" y="526"/>
      <point x="506" y="562"/>
      <point x="516" y="606" type="curve" smooth="yes"/>
      <point x="528" y="660"/>
      <point x="588" y="692"/>
      <point x="646" y="700" type="curve"/>
      <point x="520" y="964" type="line"/>
      <point x="316" y="942"/>
      <point x="114" y="848"/>
      <point x="70" y="642" type="curve" smooth="yes"/>
      <point x="38" y="494"/>
      <point x="90" y="358"/>
      <point x="326" y="258" type="curve" smooth="yes"/>
      <point x="486" y="190"/>
      <point x="528" y="160"/>
      <point x="514" y="108" type="curve" smooth="yes"/>
      <point x="502" y="64"/>
      <point x="448" y="54"/>
      <point x="378" y="48" type="curve"/>
      <point x="296" y="48"/>
      <point x="126" y="112"/>
      <point x="6" y="192" type="curve"/>
      <point x="-90" y="-166" type="line"/>
      <point x="26" y="-206"/>
      <point x="202" y="-272"/>
    </contour>
    <contour>
      <point x="794" y="220" type="line"/>
      <point x="1004" y="252"/>
      <point x="1164" y="350"/>
      <point x="1204" y="544" type="curve" smooth="yes"/>
      <point x="1242" y="722"/>
      <point x="1152" y="822"/>
      <point x="906" y="922" type="curve" smooth="yes"/>
      <point x="782" y="972"/>
      <point x="752" y="1012"/>
      <point x="762" y="1056" type="curve" smooth="yes"/>
      <point x="772" y="1098"/>
      <point x="832" y="1114"/>
      <point x="876" y="1120" type="curve"/>
      <point x="938" y="1120"/>
      <point x="1060" y="1080"/>
      <point x="1198" y="996" type="curve"/>
      <point x="1298" y="1358" type="line"/>
      <point x="1198" y="1392"/>
      <point x="976" y="1458"/>
      <point x="812" y="1458" type="curve" smooth="yes"/>
      <point x="526" y="1458"/>
      <point x="366" y="1340"/>
      <point x="320" y="1124" type="curve" smooth="yes"/>
      <point x="278" y="930"/>
      <point x="352" y="800"/>
      <point x="574" y="708" type="curve" smooth="yes"/>
      <point x="732" y="642"/>
      <point x="776" y="610"/>
      <point x="762" y="554" type="curve" smooth="yes"/>
      <point x="750" y="508"/>
      <point x="696" y="472"/>
      <point x="622" y="464" type="curve"/>
    </contour>
  </outline>
</glyph>
<glyph name="ordfeminine" format="2">
  <advance width="828"/>
  <unicode hex="00AA"/>
  <outline>
    <contour>
      <point x="316" y="652" type="curve" smooth="yes"/>
      <point x="404" y="652"/>
      <point x="472" y="710"/>
      <point x="522" y="784" type="curve"/>
      <point x="544" y="784" type="line"/>
      <point x="544" y="672" type="line"/>
      <point x="850" y="672" type="line"/>
      <point x="834" y="776"/>
      <point x="846" y="868"/>
      <point x="864" y="952" type="curve"/>
      <point x="872" y="990" type="line" smooth="yes"/>
      <point x="884" y="1044"/>
      <point x="898" y="1082"/>
      <point x="912" y="1150" type="curve" smooth="yes"/>
      <point x="952" y="1342"/>
      <point x="822" y="1458"/>
      <point x="594" y="1458" type="curve" smooth="yes"/>
      <point x="500" y="1458"/>
      <point x="360" y="1428"/>
      <point x="278" y="1416" type="curve"/>
      <point x="230" y="1138" type="line"/>
      <point x="330" y="1172"/>
      <point x="468" y="1198"/>
      <point x="496" y="1198" type="curve" smooth="yes"/>
      <point x="584" y="1198"/>
      <point x="620" y="1164"/>
      <point x="612" y="1134" type="curve"/>
      <point x="400" y="1104" type="line" smooth="yes"/>
      <point x="290" y="1088"/>
      <point x="168" y="1050"/>
      <point x="136" y="900" type="curve" smooth="yes"/>
      <point x="106" y="756"/>
      <point x="184" y="652"/>
    </contour>
    <contour>
      <point x="492" y="894" type="curve" smooth="yes"/>
      <point x="462" y="894"/>
      <point x="434" y="916"/>
      <point x="442" y="956" type="curve" smooth="yes"/>
      <point x="450" y="992"/>
      <point x="482" y="1004"/>
      <point x="512" y="1012" type="curve" smooth="yes"/>
      <point x="556" y="1024"/>
      <point x="576" y="1034"/>
      <point x="590" y="1050" type="curve"/>
      <point x="566" y="942" type="line"/>
      <point x="540" y="908"/>
      <point x="512" y="894"/>
    </contour>
  </outline>
</glyph>
<glyph name="logicalnot" format="2">
  <advance width="1180"/>
  <unicode hex="00AC"/>
  <outline>
    <contour>
      <point x="604" y="88" type="curve"/>
      <point x="1028" y="88" type="line"/>
      <point x="1046" y="238"/>
      <point x="1074" y="378"/>
      <point x="1100" y="500" type="curve"/>
      <point x="1168" y="824" type="line"/>
      <point x="1016" y="810"/>
      <point x="874" y="808"/>
      <point x="750" y="808" type="curve"/>
      <point x="562" y="808" type="line"/>
      <point x="438" y="808"/>
      <point x="296" y="810"/>
      <point x="148" y="824" type="curve"/>
      <point x="60" y="412" type="line"/>
      <point x="214" y="426"/>
      <point x="356" y="428"/>
      <point x="480" y="428" type="curve"/>
      <point x="668" y="428" type="line"/>
      <point x="774" y="428"/>
      <point x="896" y="426"/>
      <point x="1020" y="412" type="curve"/>
      <point x="750" y="700" type="line"/>
      <point x="708" y="502" type="line"/>
      <point x="682" y="380"/>
      <point x="650" y="238"/>
    </contour>
  </outline>
</glyph>
<glyph name="micro" format="2">
  <advance width="1182"/>
  <unicode hex="00B5"/>
  <outline>
    <contour>
      <point x="-160" y="-396" type="curve"/>
      <point x="368" y="-384" type="line"/>
      <point x="366" y="-246"/>
      <point x="376" y="-126"/>
      <point x="406" y="16" type="curve"/>
      <point x="410" y="38" type="line"/>
      <point x="194" y="38" type="line"/>
      <point x="228" y="-6"/>
      <point x="280" y="-32"/>
      <point x="346" y="-32" type="curve" smooth="yes"/>
      <point x="430" y="-32"/>
      <point x="528" y="36"/>
      <point x="602" y="146" type="curve"/>
      <point x="636" y="146" type="line"/>
      <point x="636" y="0" type="line"/>
      <point x="1058" y="0" type="line"/>
      <point x="1036" y="138"/>
      <point x="1052" y="264"/>
      <point x="1076" y="378" type="curve"/>
      <point x="1112" y="550" type="line"/>
      <point x="1154" y="748"/>
      <point x="1200" y="868"/>
      <point x="1218" y="1004" type="curve"/>
      <point x="732" y="1004" type="line"/>
      <point x="726" y="866"/>
      <point x="710" y="746"/>
      <point x="680" y="604" type="curve"/>
      <point x="640" y="412" type="line"/>
      <point x="606" y="378"/>
      <point x="564" y="358"/>
      <point x="546" y="358" type="curve" smooth="yes"/>
      <point x="498" y="358"/>
      <point x="490" y="416"/>
      <point x="512" y="518" type="curve"/>
      <point x="530" y="604" type="line"/>
      <point x="560" y="744"/>
      <point x="606" y="878"/>
      <point x="630" y="1016" type="curve"/>
      <point x="130" y="1004" type="line"/>
      <point x="124" y="866"/>
      <point x="116" y="750"/>
      <point x="74" y="546" type="curve"/>
      <point x="-32" y="42" type="line"/>
      <point x="-68" y="-126"/>
      <point x="-108" y="-258"/>
    </contour>
  </outline>
</glyph>
<glyph name="AE" format="2">
  <advance width="2050"/>
  <unicode hex="00C6"/>
  <anchor x="1076" y="0" name="bottom"/>
  <anchor x="1376" y="1426" name="top"/>
  <outline>
    <contour>
      <point x="-114" y="0" type="curve"/>
      <point x="478" y="0" type="line"/>
      <point x="524" y="136"/>
      <point x="590" y="290"/>
      <point x="664" y="428" type="curve"/>
      <point x="994" y="1040" type="line"/>
      <point x="1058" y="1040" type="line"/>
      <point x="1370" y="1040" type="line"/>
      <point x="1504" y="1426" type="line"/>
      <point x="730" y="1426" type="line"/>
      <point x="668" y="1274"/>
      <point x="594" y="1136"/>
      <point x="498" y="974" type="curve"/>
      <point x="206" y="482" type="line"/>
      <point x="116" y="330"/>
      <point x="-2" y="150"/>
    </contour>
    <contour>
      <point x="442" y="232" type="line"/>
      <point x="1088" y="232" type="line"/>
      <point x="1116" y="592" type="line"/>
      <point x="572" y="592" type="line"/>
    </contour>
    <contour>
      <point x="798" y="0" type="curve"/>
      <point x="1354" y="0" type="line"/>
      <point x="1372" y="80" type="line"/>
      <point x="1376" y="228"/>
      <point x="1392" y="356"/>
      <point x="1430" y="538" type="curve"/>
      <point x="1500" y="870" type="line"/>
      <point x="1540" y="1060"/>
      <point x="1580" y="1192"/>
      <point x="1638" y="1346" type="curve"/>
      <point x="1654" y="1426" type="line"/>
      <point x="1098" y="1426" type="line"/>
      <point x="1090" y="1272"/>
      <point x="1076" y="1136"/>
      <point x="1036" y="948" type="curve"/>
      <point x="932" y="458" type="line"/>
      <point x="892" y="272"/>
      <point x="854" y="148"/>
    </contour>
    <contour>
      <point x="1264" y="0" type="line"/>
      <point x="1864" y="0" type="line"/>
      <point x="1954" y="422" type="line"/>
      <point x="1828" y="392"/>
      <point x="1702" y="386"/>
      <point x="1560" y="386" type="curve"/>
      <point x="1346" y="386" type="line"/>
    </contour>
    <contour>
      <point x="1316" y="542" type="line"/>
      <point x="1560" y="542" type="line"/>
      <point x="1718" y="542"/>
      <point x="1826" y="538"/>
      <point x="1938" y="520" type="curve"/>
      <point x="2020" y="910" type="line"/>
      <point x="1906" y="890"/>
      <point x="1796" y="886"/>
      <point x="1632" y="886" type="curve"/>
      <point x="1388" y="886" type="line"/>
    </contour>
    <contour>
      <point x="1452" y="1040" type="line"/>
      <point x="1666" y="1040" type="line"/>
      <point x="1838" y="1040"/>
      <point x="1954" y="1028"/>
      <point x="2062" y="1004" type="curve"/>
      <point x="2150" y="1426" type="line"/>
      <point x="1532" y="1426" type="line"/>
    </contour>
  </outline>
</glyph>
<glyph name="multiply" format="2">
  <advance width="1196"/>
  <unicode hex="00D7"/>
  <outline>
    <contour>
      <point x="804" y="78" type="curve"/>
      <point x="1116" y="350" type="line"/>
      <point x="1020" y="446"/>
      <point x="930" y="550"/>
      <point x="858" y="636" type="curve"/>
      <point x="676" y="854" type="line"/>
      <point x="602" y="944"/>
      <point x="518" y="1048"/>
      <point x="444" y="1162" type="curve"/>
      <point x="130" y="886" type="line"/>
      <point x="228" y="786"/>
      <point x="314" y="690"/>
      <point x="386" y="604" type="curve"/>
      <point x="570" y="382" type="line"/>
      <point x="640" y="296"/>
      <point x="724" y="192"/>
    </contour>
    <contour>
      <point x="252" y="62" type="line"/>
      <point x="374" y="176"/>
      <point x="498" y="278"/>
      <point x="604" y="364" type="curve"/>
      <point x="872" y="576" type="line"/>
      <point x="978" y="660"/>
      <point x="1114" y="756"/>
      <point x="1246" y="848" type="curve"/>
      <point x="992" y="1176" type="line"/>
      <point x="870" y="1060"/>
      <point x="748" y="958"/>
      <point x="642" y="872" type="curve"/>
      <point x="374" y="660" type="line"/>
      <point x="268" y="574"/>
      <point x="138" y="480"/>
      <point x="0" y="388" type="curve"/>
    </contour>
  </outline>
</glyph>
<glyph name="Thorn" format="2">
  <advance width="1356"/>
  <unicode hex="00DE"/>
  <outline>
    <contour>
      <point x="-42" y="0" type="curve"/>
      <point x="516" y="0" type="line"/>
      <point x="522" y="148"/>
      <point x="536" y="276"/>
      <point x="574" y="458" type="curve"/>
      <point x="678" y="948" type="line"/>
      <point x="718" y="1138"/>
      <point x="758" y="1272"/>
      <point x="816" y="1426" type="curve"/>
      <point x="258" y="1426" type="line"/>
      <point x="250" y="1272"/>
      <point x="236" y="1138"/>
      <point x="196" y="948" type="curve"/>
      <point x="92" y="458" type="line"/>
      <point x="54" y="276"/>
      <point x="14" y="148"/>
    </contour>
    <contour>
      <point x="774" y="238" type="curve"/>
      <point x="1118" y="238"/>
      <point x="1294" y="396"/>
      <point x="1358" y="702" type="curve" smooth="yes"/>
      <point x="1440" y="1090"/>
      <point x="1254" y="1250"/>
      <point x="884" y="1250" type="curve"/>
      <point x="798" y="1250"/>
      <point x="726" y="1244"/>
      <point x="680" y="1244" type="curve"/>
      <point x="602" y="874" type="line"/>
      <point x="782" y="874" type="line" smooth="yes"/>
      <point x="848" y="874"/>
      <point x="882" y="814"/>
      <point x="862" y="720" type="curve" smooth="yes"/>
      <point x="842" y="624"/>
      <point x="806" y="588"/>
      <point x="726" y="588" type="curve" smooth="yes"/>
      <point x="542" y="588" type="line"/>
      <point x="470" y="244" type="line"/>
      <point x="548" y="244"/>
      <point x="676" y="238"/>
    </contour>
  </outline>
</glyph>
<glyph name="ae" format="2">
  <advance width="1590"/>
  <unicode hex="00E6"/>
  <anchor x="689" y="0" name="bottom"/>
  <anchor x="903" y="1004" name="top"/>
  <outline>
    <contour>
      <point x="1114" y="-32" type="curve" smooth="yes"/>
      <point x="1226" y="-32"/>
      <point x="1382" y="0"/>
      <point x="1438" y="22" type="curve"/>
      <point x="1496" y="392" type="line"/>
      <point x="1370" y="346"/>
      <point x="1262" y="326"/>
      <point x="1216" y="326" type="curve" smooth="yes"/>
      <point x="1064" y="326"/>
      <point x="964" y="362"/>
      <point x="990" y="504" type="curve"/>
      <point x="1006" y="576" type="line"/>
      <point x="1036" y="692"/>
      <point x="1090" y="746"/>
      <point x="1142" y="754" type="curve"/>
      <point x="1196" y="746"/>
      <point x="1212" y="676"/>
      <point x="1190" y="598" type="curve" smooth="yes"/>
      <point x="1186" y="584"/>
      <point x="1180" y="564"/>
      <point x="1174" y="546" type="curve"/>
      <point x="1526" y="436" type="line"/>
      <point x="1540" y="474"/>
      <point x="1550" y="510"/>
      <point x="1562" y="562" type="curve" smooth="yes"/>
      <point x="1632" y="868"/>
      <point x="1476" y="1036"/>
      <point x="1132" y="1036" type="curve" smooth="yes"/>
      <point x="854" y="1036"/>
      <point x="680" y="840"/>
      <point x="626" y="548" type="curve" smooth="yes"/>
      <point x="560" y="184"/>
      <point x="758" y="-32"/>
    </contour>
    <contour>
      <point x="470" y="306" type="curve" smooth="yes"/>
      <point x="438" y="306"/>
      <point x="404" y="330"/>
      <point x="412" y="376" type="curve" smooth="yes"/>
      <point x="420" y="422"/>
      <point x="462" y="436"/>
      <point x="494" y="446" type="curve" smooth="yes"/>
      <point x="542" y="460"/>
      <point x="560" y="468"/>
      <point x="582" y="492" type="curve"/>
      <point x="552" y="358" type="line"/>
      <point x="524" y="322"/>
      <point x="494" y="306"/>
    </contour>
    <contour>
      <point x="262" y="-28" type="curve" smooth="yes"/>
      <point x="482" y="-28"/>
      <point x="644" y="80"/>
      <point x="800" y="198" type="curve"/>
      <point x="858" y="512" type="line"/>
      <point x="968" y="626" type="line"/>
      <point x="1012" y="884"/>
      <point x="860" y="1036"/>
      <point x="570" y="1036" type="curve" smooth="yes"/>
      <point x="452" y="1036"/>
      <point x="278" y="996"/>
      <point x="180" y="982" type="curve"/>
      <point x="112" y="600" type="line"/>
      <point x="236" y="642"/>
      <point x="424" y="678"/>
      <point x="464" y="678" type="curve" smooth="yes"/>
      <point x="580" y="678"/>
      <point x="620" y="636"/>
      <point x="612" y="606" type="curve"/>
      <point x="338" y="568" type="line" smooth="yes"/>
      <point x="176" y="546"/>
      <point x="32" y="486"/>
      <point x="-8" y="300" type="curve" smooth="yes"/>
      <point x="-46" y="120"/>
      <point x="46" y="-28"/>
    </contour>
    <contour>
      <point x="746" y="436" type="line"/>
      <point x="1526" y="436" type="line"/>
      <point x="1560" y="596" type="line"/>
      <point x="1310" y="620" type="line"/>
      <point x="780" y="600" type="line"/>
    </contour>
  </outline>
</glyph>
<glyph name="kgreenlandic" format="2">
  <advance width="1228"/>
  <unicode hex="0138"/>
  <outline>
    <contour>
      <point x="582" y="0" type="curve"/>
      <point x="1146" y="0" type="line"/>
      <point x="1066" y="126"/>
      <point x="1006" y="254"/>
      <point x="952" y="380" type="curve"/>
      <point x="838" y="642" type="line"/>
      <point x="902" y="452" type="line"/>
      <point x="1038" y="634" type="line"/>
      <point x="1132" y="758"/>
      <point x="1226" y="880"/>
      <point x="1336" y="1004" type="curve"/>
      <point x="762" y="1004" type="line"/>
      <point x="740" y="924"/>
      <point x="702" y="846"/>
      <point x="660" y="766" type="curve"/>
      <point x="590" y="636" type="line"/>
      <point x="514" y="636" type="line"/>
      <point x="454" y="352" type="line"/>
      <point x="534" y="352" type="line"/>
      <point x="562" y="216" type="line"/>
      <point x="578" y="144"/>
      <point x="588" y="72"/>
    </contour>
    <contour>
      <point x="-68" y="0" type="curve"/>
      <point x="448" y="0" type="line"/>
      <point x="452" y="114"/>
      <point x="460" y="214"/>
      <point x="482" y="332" type="curve"/>
      <point x="538" y="604" type="line"/>
      <point x="566" y="746"/>
      <point x="606" y="878"/>
      <point x="656" y="1016" type="curve"/>
      <point x="138" y="1004" type="line"/>
      <point x="132" y="866"/>
      <point x="124" y="750"/>
      <point x="82" y="546" type="curve"/>
      <point x="58" y="426" type="line"/>
      <point x="22" y="258"/>
      <point x="-16" y="138"/>
    </contour>
  </outline>
</glyph>
<glyph name="lslash" format="2">
  <advance width="824"/>
  <unicode hex="0142"/>
  <outline>
    <contour>
      <point x="44" y="440" type="line"/>
      <point x="178" y="492"/>
      <point x="300" y="532"/>
      <point x="416" y="564" type="curve"/>
      <point x="518" y="592" type="line"/>
      <point x="632" y="624"/>
      <point x="766" y="656"/>
      <point x="900" y="678" type="curve"/>
      <point x="872" y="1004" type="line"/>
      <point x="738" y="952"/>
      <point x="608" y="910"/>
      <point x="494" y="878" type="curve"/>
      <point x="392" y="850" type="line"/>
      <point x="274" y="818"/>
      <point x="152" y="790"/>
      <point x="16" y="766" type="curve"/>
    </contour>
    <contour>
      <point x="58" y="0" type="curve"/>
      <point x="574" y="0" type="line"/>
      <point x="580" y="138"/>
      <point x="592" y="258"/>
      <point x="628" y="426" type="curve"/>
      <point x="746" y="986" type="line"/>
      <point x="786" y="1178"/>
      <point x="844" y="1350"/>
      <point x="902" y="1504" type="curve"/>
      <point x="332" y="1464" type="line"/>
      <point x="350" y="1298"/>
      <point x="334" y="1144"/>
      <point x="302" y="986" type="curve"/>
      <point x="184" y="426" type="line"/>
      <point x="148" y="258"/>
      <point x="110" y="138"/>
    </contour>
  </outline>
</glyph>
<glyph name="Eng" format="2">
  <advance width="1512"/>
  <unicode hex="014A"/>
  <outline>
    <contour>
      <point x="592" y="-384" type="curve"/>
      <point x="1072" y="-384" type="line"/>
      <point x="1168" y="-290"/>
      <point x="1304" y="-146"/>
      <point x="1350" y="78" type="curve" smooth="yes"/>
      <point x="1388" y="260"/>
      <point x="1400" y="454"/>
      <point x="1442" y="654" type="curve"/>
      <point x="1504" y="948" type="line"/>
      <point x="1544" y="1138"/>
      <point x="1584" y="1272"/>
      <point x="1642" y="1426" type="curve"/>
      <point x="1108" y="1426" type="line"/>
      <point x="1100" y="1272"/>
      <point x="1086" y="1138"/>
      <point x="1046" y="948" type="curve"/>
      <point x="1010" y="778" type="line"/>
      <point x="976" y="778" type="line"/>
      <point x="880" y="1024" type="line"/>
      <point x="834" y="1140"/>
      <point x="800" y="1268"/>
      <point x="774" y="1426" type="curve"/>
      <point x="258" y="1426" type="line"/>
      <point x="250" y="1272"/>
      <point x="236" y="1138"/>
      <point x="196" y="948" type="curve"/>
      <point x="92" y="458" type="line"/>
      <point x="54" y="276"/>
      <point x="14" y="148"/>
      <point x="-42" y="0" type="curve"/>
      <point x="492" y="0" type="line"/>
      <point x="498" y="148"/>
      <point x="512" y="276"/>
      <point x="550" y="458" type="curve"/>
      <point x="590" y="648" type="line"/>
      <point x="622" y="648" type="line"/>
      <point x="724" y="400" type="line"/>
      <point x="782" y="258"/>
      <point x="824" y="136"/>
      <point x="842" y="0" type="curve"/>
      <point x="966" y="0" type="line"/>
      <point x="858" y="216" type="line"/>
      <point x="834" y="102" type="line"/>
      <point x="798" y="-68"/>
      <point x="718" y="-234"/>
    </contour>
  </outline>
</glyph>
<glyph name="OE" format="2">
  <advance width="2110"/>
  <unicode hex="0152"/>
  <anchor x="979" y="0" name="bottom"/>
  <anchor x="1282" y="1426" name="top"/>
  <outline>
    <contour>
      <point x="862" y="0" type="curve"/>
      <point x="1414" y="0" type="line"/>
      <point x="1432" y="80" type="line"/>
      <point x="1436" y="228"/>
      <point x="1452" y="356"/>
      <point x="1490" y="538" type="curve"/>
      <point x="1558" y="868" type="line"/>
      <point x="1598" y="1058"/>
      <point x="1640" y="1192"/>
      <point x="1698" y="1346" type="curve"/>
      <point x="1714" y="1426" type="line"/>
      <point x="1162" y="1426" type="line"/>
      <point x="1154" y="1272"/>
      <point x="1140" y="1138"/>
      <point x="1100" y="948" type="curve"/>
      <point x="996" y="458" type="line"/>
      <point x="958" y="276"/>
      <point x="918" y="148"/>
    </contour>
    <contour>
      <point x="1324" y="0" type="line"/>
      <point x="1924" y="0" type="line"/>
      <point x="2014" y="422" type="line"/>
      <point x="1888" y="392"/>
      <point x="1762" y="386"/>
      <point x="1620" y="386" type="curve"/>
      <point x="1406" y="386" type="line"/>
    </contour>
    <contour>
      <point x="1376" y="542" type="line"/>
      <point x="1620" y="542" type="line"/>
      <point x="1778" y="542"/>
      <point x="1886" y="538"/>
      <point x="1998" y="520" type="curve"/>
      <point x="2080" y="910" type="line"/>
      <point x="1966" y="890"/>
      <point x="1856" y="886"/>
      <point x="1692" y="886" type="curve"/>
      <point x="1448" y="886" type="line"/>
    </contour>
    <contour>
      <point x="1512" y="1040" type="line"/>
      <point x="1726" y="1040" type="line"/>
      <point x="1898" y="1040"/>
      <point x="2014" y="1028"/>
      <point x="2122" y="1004" type="curve"/>
      <point x="2210" y="1426" type="line"/>
      <point x="1592" y="1426" type="line"/>
    </contour>
    <contour>
      <point x="772" y="-32" type="curve" smooth="yes"/>
      <point x="900" y="-32"/>
      <point x="1074" y="-10"/>
      <point x="1184" y="36" type="curve"/>
      <point x="1260" y="496" type="line"/>
      <point x="1114" y="408"/>
      <point x="976" y="372"/>
      <point x="872" y="364" type="curve"/>
      <point x="636" y="376"/>
      <point x="568" y="560"/>
      <point x="606" y="742" type="curve" smooth="yes"/>
      <point x="654" y="974"/>
      <point x="808" y="1034"/>
      <point x="954" y="1048" type="curve"/>
      <point x="1084" y="1040"/>
      <point x="1204" y="994"/>
      <point x="1340" y="906" type="curve"/>
      <point x="1466" y="1334" type="line"/>
      <point x="1332" y="1410"/>
      <point x="1126" y="1458"/>
      <point x="960" y="1458" type="curve" smooth="yes"/>
      <point x="466" y="1458"/>
      <point x="198" y="1232"/>
      <point x="110" y="806" type="curve" smooth="yes"/>
      <point x="16" y="348"/>
      <point x="256" y="-32"/>
    </contour>
  </outline>
</glyph>
<glyph name="tbar" format="2">
  <advance width="872"/>
  <unicode hex="0167"/>
  <outline>
    <contour>
      <point x="28" y="348" type="line"/>
      <point x="148" y="368"/>
      <point x="260" y="368"/>
      <point x="358" y="368" type="curve"/>
      <point x="446" y="368" type="line"/>
      <point x="544" y="368"/>
      <point x="656" y="368"/>
      <point x="768" y="348" type="curve"/>
      <point x="826" y="630" type="line"/>
      <point x="710" y="630"/>
      <point x="598" y="630"/>
      <point x="500" y="630" type="curve"/>
      <point x="412" y="630" type="line"/>
      <point x="314" y="630"/>
      <point x="202" y="630"/>
      <point x="86" y="630" type="curve"/>
    </contour>
    <contour>
      <point x="494" y="-32" type="curve" smooth="yes"/>
      <point x="568" y="-32"/>
      <point x="684" y="-10"/>
      <point x="730" y="8" type="curve"/>
      <point x="776" y="324" type="line"/>
      <point x="720" y="294"/>
      <point x="670" y="282"/>
      <point x="642" y="282" type="curve" smooth="yes"/>
      <point x="578" y="282"/>
      <point x="560" y="344"/>
      <point x="578" y="434" type="curve" smooth="yes"/>
      <point x="676" y="900" type="line"/>
      <point x="718" y="1100"/>
      <point x="760" y="1242"/>
      <point x="818" y="1406" type="curve"/>
      <point x="292" y="1326" type="line"/>
      <point x="284" y="1188"/>
      <point x="272" y="1068"/>
      <point x="238" y="900" type="curve"/>
      <point x="168" y="570"/>
      <point x="138" y="472"/>
      <point x="114" y="362" type="curve" smooth="yes"/>
      <point x="56" y="82"/>
      <point x="232" y="-32"/>
    </contour>
    <contour>
      <point x="58" y="662" type="line"/>
      <point x="328" y="686" type="line"/>
      <point x="532" y="686" type="line"/>
      <point x="638" y="686"/>
      <point x="756" y="678"/>
      <point x="868" y="660" type="curve"/>
      <point x="940" y="1004" type="line"/>
      <point x="130" y="1004" type="line"/>
    </contour>
  </outline>
</glyph>
<glyph name="jdotless" format="2">
  <advance width="612"/>
  <unicode hex="0237"/>
  <anchor x="138" y="-384" name="bottom"/>
  <anchor x="414" y="1004" name="top"/>
  <outline>
    <contour>
      <point x="-230" y="-396" type="curve"/>
      <point x="210" y="-384" type="line"/>
      <point x="292" y="-300"/>
      <point x="408" y="-172"/>
      <point x="452" y="32" type="curve" smooth="yes"/>
      <point x="488" y="202"/>
      <point x="500" y="360"/>
      <point x="536" y="526" type="curve"/>
      <point x="582" y="746"/>
      <point x="622" y="866"/>
      <point x="676" y="1004" type="curve"/>
      <point x="152" y="1004" type="line"/>
      <point x="146" y="866"/>
      <point x="138" y="746"/>
      <point x="92" y="526" type="curve"/>
      <point x="70" y="426" type="line"/>
      <point x="-6" y="66" type="line"/>
      <point x="-42" y="-118"/>
      <point x="-130" y="-262"/>
    </contour>
  </outline>
</glyph>
<glyph name="verticallinemod" format="2">
  <advance width="460"/>
  <unicode hex="02C8"/>
  <outline>
    <contour>
      <point x="166" y="1004" type="curve"/>
      <point x="506" y="1004" type="line"/>
      <point x="548" y="1196"/>
      <point x="588" y="1374"/>
      <point x="654" y="1558" type="curve"/>
      <point x="254" y="1558" type="line"/>
      <point x="244" y="1374"/>
      <point x="208" y="1196"/>
    </contour>
  </outline>
</glyph>
<glyph name="gravecomb" format="2">
  <unicode hex="0300"/>
  <anchor x="706" y="1004" name="_top"/>
  <anchor x="814" y="1518" name="top"/>
  <outline>
    <contour>
      <point x="672" y="1106" type="curve"/>
      <point x="972" y="1110" type="line"/>
      <point x="920" y="1258"/>
      <point x="886" y="1404"/>
      <point x="864" y="1552" type="curve"/>
      <point x="394" y="1542" type="line"/>
      <point x="462" y="1390"/>
      <point x="560" y="1244"/>
    </contour>
  </outline>
</glyph>
<glyph name="acutecomb" format="2">
  <unicode hex="0301"/>
  <anchor x="706" y="1004" name="_top"/>
  <anchor x="814" y="1518" name="top"/>
  <outline>
    <contour>
      <point x="482" y="1106" type="curve"/>
      <point x="800" y="1110" type="line"/>
      <point x="960" y="1248"/>
      <point x="1118" y="1398"/>
      <point x="1244" y="1552" type="curve"/>
      <point x="740" y="1542" type="line"/>
      <point x="672" y="1396"/>
      <point x="582" y="1252"/>
    </contour>
  </outline>
</glyph>
<glyph name="dblgravecomb" format="2">
  <unicode hex="030F"/>
  <anchor x="706" y="1004" name="_top"/>
  <anchor x="816" y="1534" name="top"/>
  <outline>
    <contour>
      <point x="398" y="1106" type="curve"/>
      <point x="670" y="1110" type="line"/>
      <point x="634" y="1258"/>
      <point x="616" y="1404"/>
      <point x="610" y="1552" type="curve"/>
      <point x="174" y="1542" type="line"/>
      <point x="224" y="1390"/>
      <point x="304" y="1244"/>
    </contour>
    <contour>
      <point x="862" y="1106" type="curve"/>
      <point x="1126" y="1110" type="line"/>
      <point x="1106" y="1258"/>
      <point x="1104" y="1404"/>
      <point x="1114" y="1552" type="curve"/>
      <point x="690" y="1542" type="line"/>
      <point x="722" y="1390"/>
      <point x="784" y="1244"/>
    </contour>
  </outline>
</glyph>
<glyph name="commaaccentcomb" format="2">
  <unicode hex="0326"/>
  <anchor x="494" y="0" name="_bottom"/>
  <anchor x="372" y="-586" name="bottom"/>
  <outline>
    <contour>
      <point x="148" y="-586" type="curve"/>
      <point x="336" y="-582" type="line"/>
      <point x="508" y="-498"/>
      <point x="638" y="-408"/>
      <point x="666" y="-266" type="curve" smooth="yes"/>
      <point x="686" y="-164"/>
      <point x="628" y="-80"/>
      <point x="492" y="-72" type="curve"/>
      <point x="264" y="-90" type="line"/>
      <point x="276" y="-164"/>
      <point x="266" y="-238"/>
      <point x="250" y="-312" type="curve"/>
      <point x="232" y="-406"/>
      <point x="196" y="-484"/>
    </contour>
  </outline>
</glyph>
<glyph name="ogonekcomb" format="2">
  <unicode hex="0328"/>
  <anchor x="494" y="0" name="_ogonek"/>
  <outline>
    <contour>
      <point x="286" y="-456" type="curve" smooth="yes"/>
      <point x="344" y="-456"/>
      <point x="388" y="-448"/>
      <point x="420" y="-440" type="curve"/>
      <point x="472" y="-186" type="line"/>
      <point x="458" y="-190"/>
      <point x="428" y="-196"/>
      <point x="402" y="-198" type="curve"/>
      <point x="344" y="-192"/>
      <point x="310" y="-172"/>
      <point x="318" y="-128" type="curve" smooth="yes"/>
      <point x="328" y="-72"/>
      <point x="398" y="-32"/>
      <point x="504" y="0" type="curve"/>
      <point x="432" y="82" type="line"/>
      <point x="204" y="54" type="line"/>
      <point x="186" y="-30" type="line"/>
      <point x="108" y="-54"/>
      <point x="8" y="-100"/>
      <point x="-14" y="-218" type="curve" smooth="yes"/>
      <point x="-36" y="-338"/>
      <point x="46" y="-456"/>
    </contour>
  </outline>
</glyph>
<glyph name="macronbelowcomb" format="2">
  <unicode hex="0331"/>
  <anchor x="494" y="0" name="_bottom"/>
  <anchor x="494" y="0" name="bottom"/>
  <outline>
    <contour>
      <point x="30" y="-438" type="line"/>
      <point x="144" y="-426"/>
      <point x="270" y="-422"/>
      <point x="406" y="-422" type="curve"/>
      <point x="542" y="-422"/>
      <point x="664" y="-426"/>
      <point x="774" y="-438" type="curve"/>
      <point x="848" y="-86" type="line"/>
      <point x="734" y="-98"/>
      <point x="610" y="-102"/>
      <point x="474" y="-102" type="curve"/>
      <point x="338" y="-102"/>
      <point x="214" y="-98"/>
      <point x="104" y="-86" type="curve"/>
    </contour>
  </outline>
</glyph>
<glyph name="slashlongcomb" format="2">
  <unicode hex="0338"/>
  <anchor x="614" y="714" name="_center"/>
  <outline>
    <contour>
      <point x="44" y="-192" type="line"/>
      <point x="182" y="-14"/>
      <point x="314" y="152"/>
      <point x="480" y="342" type="curve"/>
      <point x="934" y="864" type="line"/>
      <point x="1098" y="1052"/>
      <point x="1242" y="1202"/>
      <point x="1408" y="1372" type="curve"/>
      <point x="1154" y="1572" type="line"/>
      <point x="1008" y="1384"/>
      <point x="884" y="1226"/>
      <point x="716" y="1032" type="curve"/>
      <point x="272" y="522" type="line"/>
      <point x="108" y="334"/>
      <point x="-28" y="192"/>
      <point x="-196" y="20" type="curve"/>
    </contour>
  </outline>
</glyph>
<glyph name="endash" format="2">
  <advance width="1280"/>
  <unicode hex="2013"/>
  <outline>
    <contour>
      <point x="58" y="402" type="line"/>
      <point x="212" y="416"/>
      <point x="354" y="418"/>
      <point x="478" y="418" type="curve"/>
      <point x="766" y="418" type="line"/>
      <point x="890" y="418"/>
      <point x="1032" y="416"/>
      <point x="1178" y="402" type="curve"/>
      <point x="1266" y="814" type="line"/>
      <point x="1112" y="800"/>
      <point x="970" y="798"/>
      <point x="846" y="798" type="curve"/>
      <point x="558" y="798" type="line"/>
      <point x="434" y="798"/>
      <point x="292" y="800"/>
      <point x="146" y="814" type="curve"/>
    </contour>
  </outline>
</glyph>
<glyph name="daggerdbl" format="2">
  <advance width="1220"/>
  <unicode hex="2021"/>
  <outline>
    <contour>
      <point x="258" y="0" type="curve"/>
      <point x="750" y="0" type="line"/>
      <point x="758" y="152"/>
      <point x="774" y="286"/>
      <point x="812" y="466" type="curve"/>
      <point x="904" y="898" type="line"/>
      <point x="938" y="1058"/>
      <point x="980" y="1214"/>
      <point x="1042" y="1380" type="curve"/>
      <point x="550" y="1380" type="line"/>
      <point x="544" y="1214"/>
      <point x="518" y="1058"/>
      <point x="484" y="898" type="curve"/>
      <point x="392" y="466" type="line"/>
      <point x="354" y="286"/>
      <point x="314" y="152"/>
    </contour>
    <contour>
      <point x="138" y="772" type="line"/>
      <point x="290" y="786"/>
      <point x="432" y="788"/>
      <point x="556" y="788" type="curve"/>
      <point x="784" y="788" type="line"/>
      <point x="908" y="788"/>
      <point x="1050" y="786"/>
      <point x="1198" y="772" type="curve"/>
      <point x="1276" y="1144" type="line"/>
      <point x="1124" y="1130"/>
      <point x="982" y="1128"/>
      <point x="858" y="1128" type="curve"/>
      <point x="630" y="1128" type="line"/>
      <point x="506" y="1128"/>
      <point x="364" y="1130"/>
      <point x="216" y="1144" type="curve"/>
    </contour>
    <contour>
      <point x="32" y="272" type="line"/>
      <point x="184" y="286"/>
      <point x="326" y="288"/>
      <point x="450" y="288" type="curve"/>
      <point x="678" y="288" type="line"/>
      <point x="802" y="288"/>
      <point x="944" y="286"/>
      <point x="1092" y="272" type="curve"/>
      <point x="1170" y="644" type="line"/>
      <point x="1018" y="630"/>
      <point x="874" y="628"/>
      <point x="750" y="628" type="curve"/>
      <point x="522" y="628" type="line"/>
      <point x="398" y="628"/>
      <point x="258" y="630"/>
      <point x="110" y="644" type="curve"/>
    </contour>
  </outline>
</glyph>
<glyph name="minute" format="2">
  <advance width="580"/>
  <unicode hex="2032"/>
  <outline>
    <contour>
      <point x="104" y="618" type="curve"/>
      <point x="424" y="620" type="line"/>
      <point x="524" y="880"/>
      <point x="622" y="1136"/>
      <point x="742" y="1390" type="curve"/>
      <point x="282" y="1380" type="line"/>
      <point x="236" y="1128"/>
      <point x="170" y="874"/>
    </contour>
  </outline>
</glyph>
<glyph name="guilsinglleft" format="2">
  <advance width="842"/>
  <unicode hex="2039"/>
  <outline>
    <contour>
      <point x="238" y="-4" type="curve"/>
      <point x="700" y="18" type="line"/>
      <point x="616" y="176"/>
      <point x="546" y="334"/>
      <point x="480" y="492" type="curve"/>
      <point x="486" y="524" type="line"/>
      <point x="620" y="684"/>
      <point x="756" y="846"/>
      <point x="908" y="1006" type="curve"/>
      <point x="420" y="1032" type="line"/>
      <point x="308" y="860"/>
      <point x="170" y="686"/>
      <point x="32" y="514" type="curve"/>
      <point x="110" y="342"/>
      <point x="188" y="168"/>
    </contour>
  </outline>
</glyph>
<glyph name="fraction" format="2">
  <advance width="664"/>
  <unicode hex="2044"/>
  <outline>
    <contour>
      <point x="-382" y="0" type="curve"/>
      <point x="130" y="0" type="line"/>
      <point x="202" y="146"/>
      <point x="292" y="278"/>
      <point x="422" y="460" type="curve"/>
      <point x="768" y="954" type="line"/>
      <point x="900" y="1140"/>
      <point x="1002" y="1276"/>
      <point x="1136" y="1426" type="curve"/>
      <point x="628" y="1426" type="line"/>
      <point x="550" y="1276"/>
      <point x="456" y="1140"/>
      <point x="324" y="954" type="curve"/>
      <point x="-22" y="460" type="line"/>
      <point x="-152" y="278"/>
      <point x="-248" y="146"/>
    </contour>
  </outline>
</glyph>
<glyph name="lira" format="2">
  <advance width="1246"/>
  <unicode hex="20A4"/>
  <outline>
    <contour>
      <point x="-36" y="0" type="line"/>
      <point x="1080" y="0" type="line"/>
      <point x="1174" y="442" type="line"/>
      <point x="1012" y="404"/>
      <point x="876" y="400"/>
      <point x="644" y="400" type="curve"/>
      <point x="390" y="400" type="line"/>
      <point x="454" y="340" type="line"/>
      <point x="658" y="456"/>
      <point x="690" y="552"/>
      <point x="708" y="638" type="curve" smooth="yes"/>
      <point x="750" y="848" type="line" smooth="yes"/>
      <point x="774" y="964"/>
      <point x="846" y="1018"/>
      <point x="944" y="1026" type="curve"/>
      <point x="988" y="1026"/>
      <point x="1076" y="1004"/>
      <point x="1198" y="946" type="curve"/>
      <point x="1324" y="1348" type="line"/>
      <point x="1218" y="1374"/>
      <point x="1042" y="1412"/>
      <point x="890" y="1412" type="curve" smooth="yes"/>
      <point x="544" y="1412"/>
      <point x="342" y="1228"/>
      <point x="276" y="906" type="curve" smooth="yes"/>
      <point x="252" y="790"/>
      <point x="234" y="622"/>
      <point x="204" y="478" type="curve"/>
      <point x="188" y="416"/>
      <point x="162" y="330"/>
      <point x="14" y="240" type="curve"/>
    </contour>
    <contour>
      <point x="136" y="734" type="line"/>
      <point x="286" y="738"/>
      <point x="428" y="740"/>
      <point x="552" y="740" type="curve"/>
      <point x="640" y="740" type="line"/>
      <point x="764" y="740"/>
      <point x="906" y="738"/>
      <point x="1056" y="734" type="curve"/>
      <point x="1098" y="936" type="line"/>
      <point x="946" y="922"/>
      <point x="802" y="920"/>
      <point x="678" y="920" type="curve"/>
      <point x="590" y="920" type="line"/>
      <point x="466" y="920"/>
      <point x="326" y="922"/>
      <point x="178" y="936" type="curve"/>
    </contour>
    <contour>
      <point x="78" y="466" type="line"/>
      <point x="232" y="480"/>
      <point x="374" y="482"/>
      <point x="498" y="482" type="curve"/>
      <point x="586" y="482" type="line"/>
      <point x="710" y="482"/>
      <point x="852" y="480"/>
      <point x="998" y="466" type="curve"/>
      <point x="1042" y="668" type="line"/>
      <point x="890" y="664"/>
      <point x="748" y="662"/>
      <point x="624" y="662" type="curve"/>
      <point x="536" y="662" type="line"/>
      <point x="412" y="662"/>
      <point x="270" y="664"/>
      <point x="122" y="668" type="curve"/>
    </contour>
  </outline>
</glyph>
<glyph name="peseta" format="2">
  <advance width="1620"/>
  <unicode hex="20A7"/>
  <outline>
    <contour>
      <point x="616" y="410" type="line"/>
      <point x="690" y="410"/>
      <point x="814" y="402"/>
      <point x="908" y="402" type="curve"/>
      <point x="1234" y="402"/>
      <point x="1398" y="556"/>
      <point x="1462" y="852" type="curve" smooth="yes"/>
      <point x="1544" y="1232"/>
      <point x="1372" y="1392"/>
      <point x="1022" y="1392" type="curve"/>
      <point x="752" y="1392"/>
      <point x="530" y="1380"/>
      <point x="384" y="1380" type="curve"/>
      <point x="774" y="1028" type="line"/>
      <point x="918" y="1028" type="line" smooth="yes"/>
      <point x="980" y="1028"/>
      <point x="1010" y="970"/>
      <point x="988" y="868" type="curve" smooth="yes"/>
      <point x="966" y="764"/>
      <point x="930" y="738"/>
      <point x="860" y="738" type="curve" smooth="yes"/>
      <point x="686" y="738" type="line"/>
    </contour>
    <contour>
      <point x="88" y="0" type="curve"/>
      <point x="620" y="0" type="line"/>
      <point x="616" y="142"/>
      <point x="640" y="262"/>
      <point x="678" y="440" type="curve"/>
      <point x="764" y="844" type="line"/>
      <point x="804" y="1032"/>
      <point x="832" y="1154"/>
      <point x="888" y="1304" type="curve"/>
      <point x="384" y="1380" type="line"/>
      <point x="386" y="1232"/>
      <point x="364" y="1120"/>
      <point x="322" y="922" type="curve"/>
      <point x="218" y="440" type="line"/>
      <point x="180" y="262"/>
      <point x="152" y="142"/>
    </contour>
    <contour>
      <point x="96" y="716" type="line"/>
      <point x="246" y="730"/>
      <point x="388" y="732"/>
      <point x="512" y="732" type="curve"/>
      <point x="576" y="1032" type="line"/>
      <point x="452" y="1032"/>
      <point x="312" y="1034"/>
      <point x="166" y="1048" type="curve"/>
    </contour>
    <contour>
      <point x="1206" y="732" type="line"/>
      <point x="1328" y="732"/>
      <point x="1470" y="730"/>
      <point x="1616" y="716" type="curve"/>
      <point x="1686" y="1048" type="line"/>
      <point x="1536" y="1034"/>
      <point x="1392" y="1032"/>
      <point x="1270" y="1032" type="curve"/>
    </contour>
  </outline>
</glyph>
<glyph name="dong" format="2">
  <advance width="1156"/>
  <unicode hex="20AB"/>
  <outline>
    <contour>
      <point x="360" y="266" type="curve" smooth="yes"/>
      <point x="438" y="266"/>
      <point x="526" y="304"/>
      <point x="600" y="392" type="curve"/>
      <point x="622" y="392" type="line"/>
      <point x="620" y="292" type="line"/>
      <point x="958" y="292" type="line"/>
      <point x="952" y="398"/>
      <point x="968" y="500"/>
      <point x="996" y="634" type="curve"/>
      <point x="1090" y="1078" type="line"/>
      <point x="1124" y="1238"/>
      <point x="1152" y="1368"/>
      <point x="1178" y="1492" type="curve"/>
      <point x="772" y="1466" type="line"/>
      <point x="780" y="1332"/>
      <point x="754" y="1210"/>
      <point x="726" y="1080" type="curve"/>
      <point x="714" y="1022" type="line"/>
      <point x="688" y="1022" type="line"/>
      <point x="644" y="1090"/>
      <point x="558" y="1122"/>
      <point x="488" y="1122" type="curve" smooth="yes"/>
      <point x="294" y="1122"/>
      <point x="166" y="950"/>
      <point x="118" y="724" type="curve" smooth="yes"/>
      <point x="66" y="476"/>
      <point x="144" y="266"/>
    </contour>
    <contour>
      <point x="-38" y="-16" type="line"/>
      <point x="116" y="-2"/>
      <point x="258" y="0"/>
      <point x="382" y="0" type="curve"/>
      <point x="470" y="0" type="line"/>
      <point x="594" y="0"/>
      <point x="736" y="-2"/>
      <point x="882" y="-16" type="curve"/>
      <point x="936" y="216" type="line"/>
      <point x="782" y="202"/>
      <point x="640" y="200"/>
      <point x="516" y="200" type="curve"/>
      <point x="428" y="200" type="line"/>
      <point x="304" y="200"/>
      <point x="162" y="202"/>
      <point x="16" y="216" type="curve"/>
    </contour>
    <contour>
      <point x="552" y="568" type="curve"/>
      <point x="488" y="574"/>
      <point x="472" y="646"/>
      <point x="484" y="694" type="curve" smooth="yes"/>
      <point x="502" y="764"/>
      <point x="542" y="808"/>
      <point x="604" y="814" type="curve"/>
      <point x="632" y="812"/>
      <point x="656" y="802"/>
      <point x="666" y="788" type="curve"/>
      <point x="628" y="610" type="line"/>
      <point x="610" y="584"/>
      <point x="580" y="570"/>
    </contour>
    <contour>
      <point x="484" y="1176" type="line"/>
      <point x="622" y="1190"/>
      <point x="750" y="1192"/>
      <point x="864" y="1192" type="curve"/>
      <point x="894" y="1192" type="line"/>
      <point x="1008" y="1192"/>
      <point x="1136" y="1190"/>
      <point x="1270" y="1176" type="curve"/>
      <point x="1314" y="1388" type="line"/>
      <point x="1176" y="1374"/>
      <point x="1046" y="1372"/>
      <point x="932" y="1372" type="curve"/>
      <point x="902" y="1372" type="line"/>
      <point x="788" y="1372"/>
      <point x="662" y="1374"/>
      <point x="528" y="1388" type="curve"/>
    </contour>
  </outline>
</glyph>
<glyph name="kip" format="2">
  <advance width="1566"/>
  <unicode hex="20AD"/>
  <outline>
    <contour>
      <point x="838" y="0" type="curve"/>
      <point x="1446" y="0" type="line"/>
      <point x="1362" y="138"/>
      <point x="1272" y="368"/>
      <point x="1214" y="522" type="curve"/>
      <point x="1082" y="874" type="line"/>
      <point x="1118" y="668" type="line"/>
      <point x="1340" y="944" type="line"/>
      <point x="1450" y="1082"/>
      <point x="1570" y="1228"/>
      <point x="1726" y="1380" type="curve"/>
      <point x="1106" y="1380" type="line"/>
      <point x="1060" y="1258"/>
      <point x="1004" y="1168"/>
      <point x="940" y="1068" type="curve"/>
      <point x="804" y="856" type="line"/>
      <point x="712" y="856" type="line"/>
      <point x="652" y="576" type="line"/>
      <point x="750" y="576" type="line"/>
      <point x="808" y="320" type="line"/>
      <point x="830" y="222"/>
      <point x="854" y="126"/>
    </contour>
    <contour>
      <point x="90" y="0" type="curve"/>
      <point x="630" y="0" type="line"/>
      <point x="624" y="142"/>
      <point x="650" y="266"/>
      <point x="686" y="436" type="curve"/>
      <point x="790" y="926" type="line"/>
      <point x="828" y="1106"/>
      <point x="858" y="1238"/>
      <point x="922" y="1380" type="curve"/>
      <point x="382" y="1380" type="line"/>
      <point x="386" y="1238"/>
      <point x="360" y="1106"/>
      <point x="322" y="926" type="curve"/>
      <point x="218" y="436" type="line"/>
      <point x="182" y="266"/>
      <point x="154" y="142"/>
    </contour>
    <contour>
      <point x="60" y="550" type="line"/>
      <point x="214" y="564"/>
      <point x="356" y="566"/>
      <point x="480" y="566" type="curve"/>
      <point x="1108" y="566" type="line"/>
      <point x="1232" y="566"/>
      <point x="1374" y="564"/>
      <point x="1520" y="550" type="curve"/>
      <point x="1590" y="882" type="line"/>
      <point x="1438" y="868"/>
      <point x="1296" y="866"/>
      <point x="1172" y="866" type="curve"/>
      <point x="544" y="866" type="line"/>
      <point x="420" y="866"/>
      <point x="278" y="868"/>
      <point x="130" y="882" type="curve"/>
    </contour>
  </outline>
</glyph>
<glyph name="guarani" format="2">
  <advance width="1386"/>
  <unicode hex="20B2"/>
  <outline>
    <contour>
      <point x="762" y="-28" type="curve" smooth="yes"/>
      <point x="888" y="-28"/>
      <point x="1100" y="10"/>
      <point x="1208" y="24" type="curve"/>
      <point x="1218" y="444" type="line"/>
      <point x="1074" y="370"/>
      <point x="968" y="338"/>
      <point x="800" y="338" type="curve"/>
      <point x="604" y="344"/>
      <point x="538" y="532"/>
      <point x="578" y="724" type="curve" smooth="yes"/>
      <point x="628" y="958"/>
      <point x="778" y="1014"/>
      <point x="904" y="1020" type="curve"/>
      <point x="974" y="1020"/>
      <point x="1116" y="980"/>
      <point x="1316" y="882" type="curve"/>
      <point x="1444" y="1310" type="line"/>
      <point x="1310" y="1354"/>
      <point x="1108" y="1412"/>
      <point x="894" y="1412" type="curve" smooth="yes"/>
      <point x="464" y="1412"/>
      <point x="198" y="1210"/>
      <point x="106" y="780" type="curve" smooth="yes"/>
      <point x="14" y="352"/>
      <point x="214" y="-28"/>
    </contour>
    <contour>
      <point x="734" y="24" type="curve"/>
      <point x="1208" y="24" type="line"/>
      <point x="1222" y="170"/>
      <point x="1244" y="284"/>
      <point x="1268" y="398" type="curve"/>
      <point x="1296" y="530"/>
      <point x="1324" y="628"/>
      <point x="1374" y="732" type="curve"/>
      <point x="864" y="732" type="line"/>
      <point x="874" y="626"/>
      <point x="858" y="530"/>
      <point x="830" y="398" type="curve"/>
      <point x="806" y="282"/>
      <point x="780" y="168"/>
    </contour>
    <contour>
      <point x="426" y="-274" type="curve"/>
      <point x="792" y="-274" type="line"/>
      <point x="812" y="-112"/>
      <point x="834" y="38"/>
      <point x="866" y="186" type="curve"/>
      <point x="546" y="186" type="line"/>
      <point x="514" y="38"/>
      <point x="474" y="-112"/>
    </contour>
    <contour>
      <point x="764" y="1208" type="curve"/>
      <point x="1084" y="1208" type="line"/>
      <point x="1110" y="1334"/>
      <point x="1148" y="1466"/>
      <point x="1190" y="1606" type="curve"/>
      <point x="826" y="1606" type="line"/>
      <point x="810" y="1466"/>
      <point x="790" y="1334"/>
    </contour>
  </outline>
</glyph>
<glyph name="emptyset" format="2">
  <advance width="1282"/>
  <unicode hex="2205"/>
  <outline>
    <contour>
      <point x="238" y="-68" type="line"/>
      <point x="338" y="72"/>
      <point x="442" y="192"/>
      <point x="564" y="332" type="curve"/>
      <point x="904" y="724" type="line"/>
      <point x="1028" y="868"/>
      <point x="1128" y="982"/>
      <point x="1256" y="1106" type="curve"/>
      <point x="1074" y="1256" type="line"/>
      <point x="970" y="1114"/>
      <point x="870" y="996"/>
      <point x="746" y="852" type="curve"/>
      <point x="414" y="470" type="line"/>
      <point x="292" y="330"/>
      <point x="196" y="222"/>
      <point x="62" y="96" type="curve"/>
    </contour>
    <contour>
      <point x="622" y="44" type="curve" smooth="yes"/>
      <point x="948" y="44"/>
      <point x="1164" y="182"/>
      <point x="1232" y="508" type="curve" smooth="yes"/>
      <point x="1302" y="840"/>
      <point x="1070" y="1144"/>
      <point x="696" y="1144" type="curve" smooth="yes"/>
      <point x="370" y="1144"/>
      <point x="158" y="1006"/>
      <point x="88" y="680" type="curve" smooth="yes"/>
      <point x="16" y="348"/>
      <point x="248" y="44"/>
    </contour>
    <contour>
      <point x="646" y="348" type="curve"/>
      <point x="484" y="360"/>
      <point x="388" y="478"/>
      <point x="424" y="634" type="curve" smooth="yes"/>
      <point x="450" y="750"/>
      <point x="526" y="830"/>
      <point x="678" y="842" type="curve"/>
      <point x="840" y="830"/>
      <point x="926" y="696"/>
      <point x="900" y="560" type="curve" smooth="yes"/>
      <point x="872" y="418"/>
      <point x="788" y="362"/>
    </contour>
  </outline>
</glyph>
<glyph name="product" format="2">
  <advance width="1682"/>
  <unicode hex="220F"/>
  <outline>
    <contour>
      <point x="740" y="-384" type="curve"/>
      <point x="1306" y="-384" type="line"/>
      <point x="1320" y="-198"/>
      <point x="1342" y="-36"/>
      <point x="1390" y="192" type="curve"/>
      <point x="1508" y="746" type="line"/>
      <point x="1558" y="980"/>
      <point x="1604" y="1142"/>
      <point x="1670" y="1328" type="curve"/>
      <point x="1690" y="1426" type="line"/>
      <point x="1124" y="1426" type="line"/>
      <point x="1104" y="1328" type="line"/>
      <point x="1090" y="1142"/>
      <point x="1068" y="980"/>
      <point x="1018" y="746" type="curve"/>
      <point x="900" y="192" type="line"/>
      <point x="852" y="-36"/>
      <point x="806" y="-198"/>
    </contour>
    <contour>
      <point x="0" y="-384" type="curve"/>
      <point x="566" y="-384" type="line"/>
      <point x="580" y="-198"/>
      <point x="602" y="-36"/>
      <point x="650" y="192" type="curve"/>
      <point x="768" y="746" type="line"/>
      <point x="818" y="980"/>
      <point x="864" y="1142"/>
      <point x="930" y="1328" type="curve"/>
      <point x="950" y="1426" type="line"/>
      <point x="384" y="1426" type="line"/>
      <point x="364" y="1328" type="line"/>
      <point x="350" y="1142"/>
      <point x="328" y="980"/>
      <point x="278" y="746" type="curve"/>
      <point x="160" y="192" type="line"/>
      <point x="112" y="-36"/>
      <point x="66" y="-198"/>
    </contour>
    <contour>
      <point x="160" y="972" type="line"/>
      <point x="264" y="1006"/>
      <point x="368" y="1022"/>
      <point x="508" y="1022" type="curve"/>
      <point x="1394" y="1022" type="line"/>
      <point x="1534" y="1022"/>
      <point x="1634" y="1006"/>
      <point x="1722" y="972" type="curve"/>
      <point x="1818" y="1426" type="line"/>
      <point x="256" y="1426" type="line"/>
    </contour>
  </outline>
</glyph>
<glyph name="summation" format="2">
  <advance width="1388"/>
  <unicode hex="2211"/>
  <outline>
    <contour>
      <point x="-128" y="-384" type="line"/>
      <point x="1120" y="-384" type="line"/>
      <point x="1216" y="70" type="line"/>
      <point x="1090" y="22"/>
      <point x="902" y="18"/>
      <point x="772" y="18" type="curve"/>
      <point x="532" y="18" type="line"/>
      <point x="524" y="-122" type="line"/>
      <point x="740" y="118" type="line"/>
      <point x="868" y="260"/>
      <point x="1006" y="408"/>
      <point x="1168" y="548" type="curve"/>
      <point x="1058" y="676"/>
      <point x="960" y="812"/>
      <point x="878" y="940" type="curve"/>
      <point x="736" y="1162" type="line"/>
      <point x="732" y="1024" type="line"/>
      <point x="1002" y="1024" type="line"/>
      <point x="1124" y="1024"/>
      <point x="1262" y="1020"/>
      <point x="1398" y="964" type="curve"/>
      <point x="1496" y="1426" type="line"/>
      <point x="296" y="1426" type="line"/>
      <point x="220" y="1064" type="line"/>
      <point x="326" y="956"/>
      <point x="422" y="814"/>
      <point x="520" y="668" type="curve"/>
      <point x="710" y="384" type="line"/>
      <point x="718" y="742" type="line"/>
      <point x="444" y="438" type="line"/>
      <point x="288" y="266"/>
      <point x="66" y="24"/>
      <point x="-68" y="-98" type="curve"/>
    </contour>
  </outline>
</glyph>
<glyph name="minus" format="2">
  <advance width="1180"/>
  <unicode hex="2212"/>
  <outline>
    <contour>
      <point x="60" y="412" type="line"/>
      <point x="214" y="426"/>
      <point x="356" y="428"/>
      <point x="480" y="428" type="curve"/>
      <point x="668" y="428" type="line"/>
      <point x="792" y="428"/>
      <point x="934" y="426"/>
      <point x="1080" y="412" type="curve"/>
      <point x="1168" y="824" type="line"/>
      <point x="1016" y="810"/>
      <point x="874" y="808"/>
      <point x="750" y="808" type="curve"/>
      <point x="562" y="808" type="line"/>
      <point x="438" y="808"/>
      <point x="296" y="810"/>
      <point x="148" y="824" type="curve"/>
    </contour>
  </outline>
</glyph>
<glyph name="divisionslash" format="2">
  <advance width="888"/>
  <unicode hex="2215"/>
  <outline>
    <contour>
      <point x="-106" y="0" type="curve"/>
      <point x="376" y="0" type="line"/>
      <point x="422" y="148"/>
      <point x="480" y="274"/>
      <point x="570" y="456" type="curve"/>
      <point x="812" y="946" type="line"/>
      <point x="908" y="1140"/>
      <point x="976" y="1272"/>
      <point x="1080" y="1426" type="curve"/>
      <point x="600" y="1426" type="line"/>
      <point x="552" y="1272"/>
      <point x="490" y="1142"/>
      <point x="398" y="954" type="curve"/>
      <point x="152" y="456" type="line"/>
      <point x="62" y="274"/>
      <point x="-6" y="148"/>
    </contour>
  </outline>
</glyph>
<glyph name="approxequal" format="2">
  <advance width="1180"/>
  <unicode hex="2248"/>
  <outline>
    <contour>
      <point x="864" y="622" type="curve" smooth="yes"/>
      <point x="1036" y="622"/>
      <point x="1142" y="792"/>
      <point x="1200" y="1064" type="curve"/>
      <point x="950" y="1064" type="line"/>
      <point x="926" y="1028"/>
      <point x="908" y="1004"/>
      <point x="872" y="998" type="curve"/>
      <point x="768" y="1012"/>
      <point x="638" y="1108"/>
      <point x="486" y="1108" type="curve" smooth="yes"/>
      <point x="302" y="1108"/>
      <point x="192" y="936"/>
      <point x="134" y="666" type="curve"/>
      <point x="384" y="666" type="line"/>
      <point x="408" y="702"/>
      <point x="432" y="726"/>
      <point x="472" y="732" type="curve"/>
      <point x="566" y="718"/>
      <point x="704" y="622"/>
    </contour>
    <contour>
      <point x="754" y="104" type="curve" smooth="yes"/>
      <point x="926" y="104"/>
      <point x="1032" y="274"/>
      <point x="1090" y="546" type="curve"/>
      <point x="840" y="546" type="line"/>
      <point x="816" y="510"/>
      <point x="798" y="486"/>
      <point x="762" y="480" type="curve"/>
      <point x="658" y="494"/>
      <point x="528" y="590"/>
      <point x="376" y="590" type="curve" smooth="yes"/>
      <point x="192" y="590"/>
      <point x="82" y="418"/>
      <point x="24" y="148" type="curve"/>
      <point x="274" y="148" type="line"/>
      <point x="298" y="184"/>
      <point x="322" y="208"/>
      <point x="362" y="214" type="curve"/>
      <point x="456" y="200"/>
      <point x="594" y="104"/>
    </contour>
  </outline>
</glyph>
<glyph name="lessequal" format="2">
  <advance width="1180"/>
  <unicode hex="2264"/>
  <guideline x="517" y="95" angle="77.8229"/>
  <outline>
    <contour>
      <point x="1080" y="406" type="curve"/>
      <point x="1170" y="826" type="line"/>
      <point x="1080" y="838"/>
      <point x="988" y="868"/>
      <point x="902" y="898" type="curve"/>
      <point x="764" y="946" type="line"/>
      <point x="770" y="978" type="line"/>
      <point x="926" y="1022" type="line"/>
      <point x="1028" y="1052"/>
      <point x="1132" y="1078"/>
      <point x="1226" y="1090" type="curve"/>
      <point x="1322" y="1550" type="line"/>
      <point x="1158" y="1478"/>
      <point x="1004" y="1426"/>
      <point x="872" y="1382" type="curve"/>
      <point x="670" y="1316" type="line"/>
      <point x="536" y="1272"/>
      <point x="384" y="1224"/>
      <point x="226" y="1188" type="curve"/>
      <point x="136" y="768" type="line"/>
      <point x="280" y="732"/>
      <point x="410" y="684"/>
      <point x="526" y="640" type="curve"/>
      <point x="698" y="574" type="line"/>
      <point x="812" y="530"/>
      <point x="946" y="478"/>
    </contour>
    <contour>
      <point x="-30" y="-16" type="line"/>
      <point x="122" y="-2"/>
      <point x="266" y="0"/>
      <point x="390" y="0" type="curve"/>
      <point x="578" y="0" type="line"/>
      <point x="702" y="0"/>
      <point x="842" y="-2"/>
      <point x="990" y="-16" type="curve"/>
      <point x="1078" y="396" type="line"/>
      <point x="924" y="382"/>
      <point x="782" y="380"/>
      <point x="658" y="380" type="curve"/>
      <point x="470" y="380" type="line"/>
      <point x="346" y="380"/>
      <point x="204" y="382"/>
      <point x="58" y="396" type="curve"/>
    </contour>
  </outline>
</glyph>
<glyph name="greaterequal" format="2">
  <advance width="1180"/>
  <unicode hex="2265"/>
  <guideline x="7" y="95" angle="257.8229"/>
  <outline>
    <contour>
      <point x="-30" y="-16" type="line"/>
      <point x="122" y="-2"/>
      <point x="266" y="0"/>
      <point x="390" y="0" type="curve"/>
      <point x="578" y="0" type="line"/>
      <point x="702" y="0"/>
      <point x="842" y="-2"/>
      <point x="990" y="-16" type="curve"/>
      <point x="1078" y="396" type="line"/>
      <point x="924" y="382"/>
      <point x="782" y="380"/>
      <point x="658" y="380" type="curve"/>
      <point x="470" y="380" type="line"/>
      <point x="346" y="380"/>
      <point x="204" y="382"/>
      <point x="58" y="396" type="curve"/>
    </contour>
    <contour>
      <point x="60" y="406" type="line"/>
      <point x="224" y="478"/>
      <point x="378" y="530"/>
      <point x="510" y="574" type="curve"/>
      <point x="712" y="640" type="line"/>
      <point x="846" y="684"/>
      <point x="998" y="732"/>
      <point x="1156" y="768" type="curve"/>
      <point x="1246" y="1188" type="line"/>
      <point x="1102" y="1224"/>
      <point x="972" y="1272"/>
      <point x="856" y="1316" type="curve"/>
      <point x="684" y="1382" type="line"/>
      <point x="570" y="1426"/>
      <point x="436" y="1478"/>
      <point x="302" y="1550" type="curve"/>
      <point x="212" y="1130" type="line"/>
      <point x="302" y="1118"/>
      <point x="394" y="1088"/>
      <point x="480" y="1058" type="curve"/>
      <point x="618" y="1010" type="line"/>
      <point x="612" y="978" type="line"/>
      <point x="456" y="934" type="line"/>
      <point x="354" y="904"/>
      <point x="250" y="878"/>
      <point x="156" y="866" type="curve"/>
    </contour>
  </outline>
</glyph>
<glyph name="OE.001" format="2">
  <advance width="2170"/>
  <anchor x="979" y="0" name="bottom"/>
  <anchor x="1282" y="1426" name="top"/>
  <outline>
    <contour>
      <point x="746" y="-32" type="curve" smooth="yes"/>
      <point x="1182" y="-32"/>
      <point x="1420" y="238"/>
      <point x="1498" y="630" type="curve"/>
      <point x="1574" y="866" type="line"/>
      <point x="1574" y="1322"/>
      <point x="1352" y="1458"/>
      <point x="938" y="1458" type="curve" smooth="yes"/>
      <point x="444" y="1458"/>
      <point x="188" y="1206"/>
      <point x="110" y="806" type="curve" smooth="yes"/>
      <point x="24" y="370"/>
      <point x="234" y="-32"/>
    </contour>
    <contour>
      <point x="808" y="364" type="curve"/>
      <point x="648" y="388"/>
      <point x="564" y="544"/>
      <point x="608" y="746" type="curve" smooth="yes"/>
      <point x="648" y="932"/>
      <point x="756" y="1042"/>
      <point x="906" y="1062" type="curve"/>
      <point x="1078" y="1038"/>
      <point x="1142" y="874"/>
      <point x="1100" y="680" type="curve" smooth="yes"/>
      <point x="1058" y="482"/>
      <point x="950" y="380"/>
    </contour>
    <contour>
      <point x="922" y="0" type="curve"/>
      <point x="1474" y="0" type="line"/>
      <point x="1492" y="80" type="line"/>
      <point x="1496" y="228"/>
      <point x="1512" y="356"/>
      <point x="1550" y="538" type="curve"/>
      <point x="1618" y="868" type="line"/>
      <point x="1658" y="1058"/>
      <point x="1700" y="1192"/>
      <point x="1758" y="1346" type="curve"/>
      <point x="1774" y="1426" type="line"/>
      <point x="1222" y="1426" type="line"/>
      <point x="1214" y="1272"/>
      <point x="1200" y="1138"/>
      <point x="1160" y="948" type="curve"/>
      <point x="1056" y="458" type="line"/>
      <point x="1018" y="276"/>
      <point x="978" y="148"/>
    </contour>
    <contour>
      <point x="1384" y="0" type="line"/>
      <point x="1984" y="0" type="line"/>
      <point x="2074" y="422" type="line"/>
      <point x="1948" y="392"/>
      <point x="1822" y="386"/>
      <point x="1680" y="386" type="curve"/>
      <point x="1466" y="386" type="line"/>
    </contour>
    <contour>
      <point x="1436" y="542" type="line"/>
      <point x="1680" y="542" type="line"/>
      <point x="1838" y="542"/>
      <point x="1946" y="538"/>
      <point x="2058" y="520" type="curve"/>
      <point x="2140" y="910" type="line"/>
      <point x="2026" y="890"/>
      <point x="1916" y="886"/>
      <point x="1752" y="886" type="curve"/>
      <point x="1508" y="886" type="line"/>
    </contour>
    <contour>
      <point x="1572" y="1040" type="line"/>
      <point x="1786" y="1040" type="line"/>
      <point x="1958" y="1040"/>
      <point x="2074" y="1028"/>
      <point x="2182" y="1004" type="curve"/>
      <point x="2270" y="1426" type="line"/>
      <point x="1652" y="1426" type="line"/>
    </contour>
  </outline>
</glyph>
<glyph name="_Q_tail" format="2">
  <advance width="1566"/>
  <anchor x="678" y="0" name="_bottom"/>
  <outline>
    <contour>
      <point x="908" y="-370" type="curve"/>
      <point x="1440" y="-168" type="line"/>
      <point x="1292" y="-100"/>
      <point x="1200" y="-34"/>
      <point x="1116" y="48" type="curve"/>
      <point x="926" y="236" type="line"/>
      <point x="644" y="-4" type="line"/>
      <point x="756" y="-140" type="line"/>
      <point x="810" y="-208"/>
      <point x="866" y="-286"/>
    </contour>
  </outline>
</glyph>
<glyph name=".notdef" format="2">
  <advance width="1210"/>
  <outline>
    <contour>
      <point x="-148" y="-384" type="line"/>
      <point x="982" y="-384" type="line"/>
      <point x="1412" y="1636" type="line"/>
      <point x="282" y="1636" type="line"/>
    </contour>
    <contour>
      <point x="46" y="-224" type="line"/>
      <point x="408" y="1476" type="line"/>
      <point x="1218" y="1476" type="line"/>
      <point x="856" y="-224" type="line"/>
    </contour>
    <contour>
      <point x="608" y="460" type="curve" smooth="yes"/>
      <point x="662" y="460"/>
      <point x="750" y="480"/>
      <point x="792" y="486" type="curve"/>
      <point x="816" y="636" type="line"/>
      <point x="788" y="626"/>
      <point x="752" y="616"/>
      <point x="744" y="616" type="curve"/>
      <point x="728" y="618"/>
      <point x="712" y="620"/>
      <point x="716" y="640" type="curve"/>
      <point x="720" y="662"/>
      <point x="762" y="686"/>
      <point x="816" y="710" type="curve" smooth="yes"/>
      <point x="910" y="752"/>
      <point x="1010" y="804"/>
      <point x="1044" y="954" type="curve" smooth="yes"/>
      <point x="1088" y="1152"/>
      <point x="952" y="1262"/>
      <point x="726" y="1262" type="curve" smooth="yes"/>
      <point x="632" y="1262"/>
      <point x="506" y="1226"/>
      <point x="422" y="1210" type="curve"/>
      <point x="374" y="908" type="line"/>
      <point x="468" y="944"/>
      <point x="586" y="976"/>
      <point x="622" y="976" type="curve"/>
      <point x="682" y="974"/>
      <point x="700" y="954"/>
      <point x="694" y="926" type="curve"/>
      <point x="686" y="892"/>
      <point x="644" y="868"/>
      <point x="590" y="836" type="curve" smooth="yes"/>
      <point x="502" y="784"/>
      <point x="422" y="736"/>
      <point x="402" y="638" type="curve" smooth="yes"/>
      <point x="382" y="544"/>
      <point x="440" y="460"/>
    </contour>
    <contour>
      <point x="510" y="22" type="curve" smooth="yes"/>
      <point x="634" y="22"/>
      <point x="698" y="82"/>
      <point x="720" y="194" type="curve" smooth="yes"/>
      <point x="740" y="296"/>
      <point x="682" y="398"/>
      <point x="540" y="398" type="curve" smooth="yes"/>
      <point x="402" y="398"/>
      <point x="354" y="340"/>
      <point x="336" y="250" type="curve" smooth="yes"/>
      <point x="312" y="130"/>
      <point x="372" y="22"/>
    </contour>
  </outline>
</glyph>
<glyph name="_slash.Lslash" format="2">
  <advance width="1218"/>
  <anchor x="638" y="714" name="_center"/>
  <outline>
    <contour>
      <point x="48" y="430" type="line"/>
      <point x="202" y="488"/>
      <point x="352" y="530"/>
      <point x="478" y="564" type="curve"/>
      <point x="592" y="594" type="line"/>
      <point x="718" y="628"/>
      <point x="874" y="666"/>
      <point x="1026" y="698" type="curve"/>
      <point x="994" y="1068" type="line"/>
      <point x="844" y="1012"/>
      <point x="694" y="966"/>
      <point x="566" y="932" type="curve"/>
      <point x="448" y="900" type="line"/>
      <point x="320" y="864"/>
      <point x="170" y="828"/>
      <point x="16" y="798" type="curve"/>
    </contour>
  </outline>
</glyph>
<glyph name="_strokeshortcomb.Tbar" format="2">
  <advance width="1470"/>
  <anchor x="781" y="714" name="_center"/>
  <outline>
    <contour>
      <point x="300" y="522" type="line"/>
      <point x="442" y="538"/>
      <point x="574" y="542"/>
      <point x="692" y="542" type="curve"/>
      <point x="796" y="542" type="line"/>
      <point x="914" y="542"/>
      <point x="1046" y="538"/>
      <point x="1180" y="522" type="curve"/>
      <point x="1260" y="904" type="line"/>
      <point x="1120" y="890"/>
      <point x="986" y="884"/>
      <point x="868" y="884" type="curve"/>
      <point x="764" y="884" type="line"/>
      <point x="646" y="884"/>
      <point x="516" y="890"/>
      <point x="380" y="904" type="curve"/>
    </contour>
  </outline>
</glyph>
<glyph name="acutecomb.case" format="2">
  <anchor x="706" y="1004" name="_top"/>
  <anchor x="810" y="1498" name="top"/>
  <outline>
    <contour>
      <point x="482" y="1106" type="curve"/>
      <point x="800" y="1110" type="line"/>
      <point x="960" y="1236"/>
      <point x="1118" y="1372"/>
      <point x="1244" y="1512" type="curve"/>
      <point x="740" y="1502" type="line"/>
      <point x="672" y="1370"/>
      <point x="582" y="1238"/>
    </contour>
  </outline>
</glyph>
<glyph name="brevecomb.narrow" format="2">
  <anchor x="706" y="1004" name="_top"/>
  <anchor x="796" y="1438" name="top"/>
  <outline>
    <contour>
      <point x="758" y="1076" type="curve" smooth="yes"/>
      <point x="1022" y="1076"/>
      <point x="1132" y="1208"/>
      <point x="1198" y="1522" type="curve"/>
      <point x="908" y="1522" type="line"/>
      <point x="894" y="1432"/>
      <point x="864" y="1372"/>
      <point x="788" y="1360" type="curve"/>
      <point x="716" y="1372"/>
      <point x="702" y="1424"/>
      <point x="722" y="1536" type="curve"/>
      <point x="426" y="1522" type="line"/>
      <point x="362" y="1218"/>
      <point x="498" y="1076"/>
    </contour>
  </outline>
</glyph>
<glyph name="brevecomb_acutecomb" format="2">
  <anchor x="702" y="1004" name="_top"/>
  <outline>
    <contour>
      <point x="760" y="1076" type="curve" smooth="yes"/>
      <point x="1048" y="1076"/>
      <point x="1166" y="1196"/>
      <point x="1222" y="1484" type="curve"/>
      <point x="938" y="1484" type="line"/>
      <point x="928" y="1402"/>
      <point x="886" y="1346"/>
      <point x="780" y="1336" type="curve"/>
      <point x="678" y="1346"/>
      <point x="648" y="1394"/>
      <point x="666" y="1496" type="curve"/>
      <point x="376" y="1484" type="line"/>
      <point x="322" y="1206"/>
      <point x="476" y="1076"/>
    </contour>
    <contour>
      <point x="620" y="1528" type="curve"/>
      <point x="900" y="1530" type="line"/>
      <point x="1030" y="1650"/>
      <point x="1160" y="1782"/>
      <point x="1262" y="1914" type="curve"/>
      <point x="830" y="1906" type="line"/>
      <point x="774" y="1780"/>
      <point x="702" y="1654"/>
    </contour>
  </outline>
</glyph>
<glyph name="brevecomb_hookabovecomb.case" format="2">
  <anchor x="702" y="1004" name="_top"/>
  <outline>
    <contour>
      <point x="760" y="1076" type="curve" smooth="yes"/>
      <point x="1048" y="1076"/>
      <point x="1166" y="1196"/>
      <point x="1216" y="1444" type="curve"/>
      <point x="932" y="1444" type="line"/>
      <point x="928" y="1402"/>
      <point x="886" y="1346"/>
      <point x="780" y="1336" type="curve"/>
      <point x="678" y="1346"/>
      <point x="648" y="1394"/>
      <point x="660" y="1456" type="curve"/>
      <point x="370" y="1444" type="line"/>
      <point x="322" y="1206"/>
      <point x="476" y="1076"/>
    </contour>
    <contour>
      <point x="668" y="1480" type="line"/>
      <point x="876" y="1480" type="line"/>
      <point x="880" y="1500" type="line"/>
      <point x="1036" y="1510"/>
      <point x="1142" y="1596"/>
      <point x="1162" y="1692" type="curve" smooth="yes"/>
      <point x="1196" y="1850"/>
      <point x="1032" y="1910"/>
      <point x="886" y="1910" type="curve" smooth="yes"/>
      <point x="824" y="1910"/>
      <point x="676" y="1882"/>
      <point x="624" y="1872" type="curve"/>
      <point x="592" y="1644" type="line"/>
      <point x="668" y="1668"/>
      <point x="780" y="1702"/>
      <point x="808" y="1702" type="curve"/>
      <point x="846" y="1698"/>
      <point x="870" y="1678"/>
      <point x="864" y="1652" type="curve" smooth="yes"/>
      <point x="854" y="1612"/>
      <point x="776" y="1582"/>
      <point x="688" y="1574" type="curve"/>
    </contour>
  </outline>
</glyph>
<glyph name="brevecomb_hookabovecomb" format="2">
  <anchor x="702" y="1004" name="_top"/>
  <outline>
    <contour>
      <point x="760" y="1076" type="curve" smooth="yes"/>
      <point x="1048" y="1076"/>
      <point x="1166" y="1196"/>
      <point x="1222" y="1484" type="curve"/>
      <point x="938" y="1484" type="line"/>
      <point x="928" y="1402"/>
      <point x="886" y="1346"/>
      <point x="780" y="1336" type="curve"/>
      <point x="678" y="1346"/>
      <point x="648" y="1394"/>
      <point x="666" y="1496" type="curve"/>
      <point x="376" y="1484" type="line"/>
      <point x="322" y="1206"/>
      <point x="476" y="1076"/>
    </contour>
    <contour>
      <point x="674" y="1520" type="line"/>
      <point x="882" y="1520" type="line"/>
      <point x="886" y="1540" type="line"/>
      <point x="1044" y="1570"/>
      <point x="1148" y="1636"/>
      <point x="1172" y="1752" type="curve" smooth="yes"/>
      <point x="1204" y="1910"/>
      <point x="1040" y="1970"/>
      <point x="894" y="1970" type="curve" smooth="yes"/>
      <point x="832" y="1970"/>
      <point x="684" y="1942"/>
      <point x="632" y="1932" type="curve"/>
      <point x="600" y="1704" type="line"/>
      <point x="676" y="1728"/>
      <point x="788" y="1762"/>
      <point x="816" y="1762" type="curve"/>
      <point x="854" y="1758"/>
      <point x="878" y="1738"/>
      <point x="872" y="1712" type="curve" smooth="yes"/>
      <point x="862" y="1672"/>
      <point x="784" y="1642"/>
      <point x="694" y="1614" type="curve"/>
    </contour>
  </outline>
</glyph>
<glyph name="cedi.BRACKET.140" format="2">
  <advance width="1304"/>
  <outline>
    <contour>
      <point x="424" y="-274" type="curve"/>
      <point x="792" y="-274" type="line"/>
      <point x="820" y="-40"/>
      <point x="862" y="168"/>
      <point x="908" y="384" type="curve"/>
      <point x="1028" y="948" type="line"/>
      <point x="1074" y="1164"/>
      <point x="1120" y="1372"/>
      <point x="1192" y="1606" type="curve"/>
      <point x="824" y="1606" type="line"/>
      <point x="796" y="1372"/>
      <point x="754" y="1164"/>
      <point x="708" y="948" type="curve"/>
      <point x="588" y="384" type="line"/>
      <point x="542" y="168"/>
      <point x="494" y="-40"/>
    </contour>
    <contour>
      <point x="732" y="-30" type="curve" smooth="yes"/>
      <point x="876" y="-30"/>
      <point x="1020" y="8"/>
      <point x="1122" y="30" type="curve"/>
      <point x="1198" y="480" type="line"/>
      <point x="1070" y="394"/>
      <point x="914" y="348"/>
      <point x="828" y="348" type="curve"/>
      <point x="608" y="356"/>
      <point x="540" y="530"/>
      <point x="578" y="716" type="curve" smooth="yes"/>
      <point x="624" y="936"/>
      <point x="764" y="1012"/>
      <point x="906" y="1020" type="curve"/>
      <point x="968" y="1020"/>
      <point x="1094" y="980"/>
      <point x="1272" y="882" type="curve"/>
      <point x="1396" y="1308" type="line"/>
      <point x="1278" y="1352"/>
      <point x="1102" y="1412"/>
      <point x="914" y="1412" type="curve" smooth="yes"/>
      <point x="444" y="1412"/>
      <point x="188" y="1182"/>
      <point x="104" y="774" type="curve" smooth="yes"/>
      <point x="12" y="334"/>
      <point x="240" y="-30"/>
    </contour>
  </outline>
</glyph>
<glyph name="circumflexcomb.narrow" format="2">
  <anchor x="706" y="1004" name="_top"/>
  <anchor x="812" y="1510" name="top"/>
  <outline>
    <contour>
      <point x="874" y="1106" type="curve"/>
      <point x="1122" y="1110" type="line"/>
      <point x="1076" y="1256"/>
      <point x="1044" y="1402"/>
      <point x="1020" y="1548" type="curve"/>
      <point x="626" y="1548" type="line"/>
      <point x="688" y="1394"/>
      <point x="774" y="1246"/>
    </contour>
    <contour>
      <point x="334" y="1108" type="curve"/>
      <point x="602" y="1108" type="line"/>
      <point x="734" y="1244"/>
      <point x="864" y="1396"/>
      <point x="968" y="1548" type="curve"/>
      <point x="576" y="1548" type="line"/>
      <point x="502" y="1402"/>
      <point x="424" y="1256"/>
    </contour>
  </outline>
</glyph>
<glyph name="circumflexcomb_acutecomb.case" format="2">
  <anchor x="706" y="1004" name="_top"/>
  <outline>
    <contour>
      <point x="1074" y="1408" type="curve"/>
      <point x="1354" y="1410" type="line"/>
      <point x="1484" y="1530"/>
      <point x="1614" y="1662"/>
      <point x="1716" y="1794" type="curve"/>
      <point x="1284" y="1786" type="line"/>
      <point x="1228" y="1660"/>
      <point x="1156" y="1534"/>
    </contour>
    <contour>
      <point x="314" y="1108" type="curve"/>
      <point x="596" y="1108" type="line"/>
      <point x="732" y="1226"/>
      <point x="866" y="1356"/>
      <point x="972" y="1490" type="curve"/>
      <point x="560" y="1490" type="line"/>
      <point x="486" y="1362"/>
      <point x="406" y="1236"/>
    </contour>
    <contour>
      <point x="880" y="1106" type="curve"/>
      <point x="1142" y="1110" type="line"/>
      <point x="1090" y="1236"/>
      <point x="1054" y="1362"/>
      <point x="1026" y="1490" type="curve"/>
      <point x="614" y="1490" type="line"/>
      <point x="680" y="1356"/>
      <point x="772" y="1228"/>
    </contour>
  </outline>
</glyph>
<glyph name="circumflexcomb_acutecomb" format="2">
  <anchor x="706" y="1004" name="_top"/>
  <outline>
    <contour>
      <point x="1074" y="1428" type="curve"/>
      <point x="1354" y="1430" type="line"/>
      <point x="1484" y="1550"/>
      <point x="1614" y="1682"/>
      <point x="1716" y="1814" type="curve"/>
      <point x="1284" y="1806" type="line"/>
      <point x="1228" y="1680"/>
      <point x="1156" y="1554"/>
    </contour>
    <contour>
      <point x="314" y="1108" type="curve"/>
      <point x="596" y="1108" type="line"/>
      <point x="734" y="1238"/>
      <point x="872" y="1382"/>
      <point x="980" y="1528" type="curve"/>
      <point x="568" y="1528" type="line"/>
      <point x="492" y="1388"/>
      <point x="410" y="1250"/>
    </contour>
    <contour>
      <point x="880" y="1106" type="curve"/>
      <point x="1142" y="1110" type="line"/>
      <point x="1094" y="1250"/>
      <point x="1058" y="1388"/>
      <point x="1024" y="1528" type="curve"/>
      <point x="622" y="1528" type="line"/>
      <point x="686" y="1380"/>
      <point x="776" y="1240"/>
    </contour>
  </outline>
</glyph>
<glyph name="circumflexcomb_gravecomb" format="2">
  <anchor x="706" y="1004" name="_top"/>
  <outline>
    <contour>
      <point x="1136" y="1426" type="curve"/>
      <point x="1396" y="1428" type="line"/>
      <point x="1358" y="1560"/>
      <point x="1328" y="1684"/>
      <point x="1310" y="1812" type="curve"/>
      <point x="914" y="1804" type="line"/>
      <point x="968" y="1672"/>
      <point x="1046" y="1546"/>
    </contour>
    <contour>
      <point x="314" y="1108" type="curve"/>
      <point x="596" y="1108" type="line"/>
      <point x="734" y="1238"/>
      <point x="872" y="1382"/>
      <point x="980" y="1528" type="curve"/>
      <point x="568" y="1528" type="line"/>
      <point x="492" y="1388"/>
      <point x="410" y="1250"/>
    </contour>
    <contour>
      <point x="880" y="1106" type="curve"/>
      <point x="1142" y="1110" type="line"/>
      <point x="1094" y="1250"/>
      <point x="1058" y="1388"/>
      <point x="1024" y="1528" type="curve"/>
      <point x="622" y="1528" type="line"/>
      <point x="686" y="1380"/>
      <point x="776" y="1240"/>
    </contour>
  </outline>
</glyph>
<glyph name="circumflexcomb_hookabovecomb.case" format="2">
  <anchor x="706" y="1004" name="_top"/>
  <outline>
    <contour>
      <point x="314" y="1108" type="curve"/>
      <point x="596" y="1108" type="line"/>
      <point x="732" y="1226"/>
      <point x="866" y="1356"/>
      <point x="972" y="1490" type="curve"/>
      <point x="560" y="1490" type="line"/>
      <point x="486" y="1362"/>
      <point x="406" y="1236"/>
    </contour>
    <contour>
      <point x="880" y="1106" type="curve"/>
      <point x="1142" y="1110" type="line"/>
      <point x="1090" y="1236"/>
      <point x="1054" y="1362"/>
      <point x="1026" y="1490" type="curve"/>
      <point x="614" y="1490" type="line"/>
      <point x="680" y="1356"/>
      <point x="772" y="1228"/>
    </contour>
    <contour>
      <point x="1078" y="1394" type="line"/>
      <point x="1286" y="1394" type="line"/>
      <point x="1290" y="1414" type="line"/>
      <point x="1446" y="1424"/>
      <point x="1552" y="1510"/>
      <point x="1572" y="1606" type="curve" smooth="yes"/>
      <point x="1604" y="1764"/>
      <point x="1442" y="1824"/>
      <point x="1296" y="1824" type="curve" smooth="yes"/>
      <point x="1234" y="1824"/>
      <point x="1086" y="1796"/>
      <point x="1034" y="1786" type="curve"/>
      <point x="1002" y="1558" type="line"/>
      <point x="1078" y="1582"/>
      <point x="1190" y="1616"/>
      <point x="1218" y="1616" type="curve"/>
      <point x="1256" y="1612"/>
      <point x="1280" y="1592"/>
      <point x="1274" y="1566" type="curve" smooth="yes"/>
      <point x="1264" y="1526"/>
      <point x="1186" y="1496"/>
      <point x="1098" y="1488" type="curve"/>
    </contour>
  </outline>
</glyph>
<glyph name="circumflexcomb_hookabovecomb" format="2">
  <anchor x="706" y="1004" name="_top"/>
  <outline>
    <contour>
      <point x="880" y="1106" type="curve"/>
      <point x="1142" y="1110" type="line"/>
      <point x="1094" y="1250"/>
      <point x="1060" y="1388"/>
      <point x="1034" y="1528" type="curve"/>
      <point x="622" y="1528" type="line"/>
      <point x="686" y="1380"/>
      <point x="776" y="1240"/>
    </contour>
    <contour>
      <point x="314" y="1108" type="curve"/>
      <point x="596" y="1108" type="line"/>
      <point x="734" y="1238"/>
      <point x="872" y="1382"/>
      <point x="980" y="1528" type="curve"/>
      <point x="568" y="1528" type="line"/>
      <point x="492" y="1388"/>
      <point x="410" y="1250"/>
    </contour>
    <contour>
      <point x="1078" y="1428" type="line"/>
      <point x="1286" y="1428" type="line"/>
      <point x="1290" y="1448" type="line"/>
      <point x="1448" y="1478"/>
      <point x="1552" y="1544"/>
      <point x="1576" y="1660" type="curve" smooth="yes"/>
      <point x="1608" y="1818"/>
      <point x="1444" y="1878"/>
      <point x="1298" y="1878" type="curve" smooth="yes"/>
      <point x="1236" y="1878"/>
      <point x="1088" y="1850"/>
      <point x="1036" y="1840" type="curve"/>
      <point x="1004" y="1612" type="line"/>
      <point x="1080" y="1636"/>
      <point x="1192" y="1670"/>
      <point x="1220" y="1670" type="curve"/>
      <point x="1258" y="1666"/>
      <point x="1282" y="1646"/>
      <point x="1276" y="1620" type="curve" smooth="yes"/>
      <point x="1266" y="1580"/>
      <point x="1188" y="1550"/>
      <point x="1098" y="1522" type="curve"/>
    </contour>
  </outline>
</glyph>
<glyph name="dieresiscomb.narrow" format="2">
  <anchor x="704" y="1004" name="_top"/>
  <anchor x="788" y="1420" name="top"/>
  <outline>
    <contour>
      <point x="958" y="1076" type="curve" smooth="yes"/>
      <point x="1056" y="1076"/>
      <point x="1146" y="1110"/>
      <point x="1178" y="1276" type="curve" smooth="yes"/>
      <point x="1198" y="1382"/>
      <point x="1146" y="1486"/>
      <point x="1006" y="1486" type="curve" smooth="yes"/>
      <point x="890" y="1486"/>
      <point x="814" y="1430"/>
      <point x="792" y="1320" type="curve" smooth="yes"/>
      <point x="760" y="1158"/>
      <point x="844" y="1076"/>
    </contour>
    <contour>
      <point x="524" y="1076" type="curve" smooth="yes"/>
      <point x="622" y="1076"/>
      <point x="712" y="1110"/>
      <point x="744" y="1276" type="curve" smooth="yes"/>
      <point x="764" y="1382"/>
      <point x="712" y="1486"/>
      <point x="572" y="1486" type="curve" smooth="yes"/>
      <point x="456" y="1486"/>
      <point x="380" y="1430"/>
      <point x="358" y="1320" type="curve" smooth="yes"/>
      <point x="326" y="1158"/>
      <point x="410" y="1076"/>
    </contour>
  </outline>
</glyph>
<glyph name="eight.dnom" format="2">
  <advance width="964"/>
  <outline>
    <contour>
      <point x="426" y="-30" type="curve" smooth="yes"/>
      <point x="690" y="-30"/>
      <point x="824" y="60"/>
      <point x="858" y="220" type="curve" smooth="yes"/>
      <point x="892" y="380"/>
      <point x="788" y="442"/>
      <point x="704" y="472" type="curve"/>
      <point x="708" y="494" type="line"/>
      <point x="820" y="508"/>
      <point x="908" y="558"/>
      <point x="930" y="664" type="curve" smooth="yes"/>
      <point x="962" y="822"/>
      <point x="812" y="954"/>
      <point x="530" y="954" type="curve" smooth="yes"/>
      <point x="314" y="954"/>
      <point x="154" y="884"/>
      <point x="124" y="738" type="curve" smooth="yes"/>
      <point x="100" y="622"/>
      <point x="174" y="546"/>
      <point x="264" y="522" type="curve"/>
      <point x="260" y="498" type="line"/>
      <point x="154" y="482"/>
      <point x="36" y="438"/>
      <point x="6" y="298" type="curve" smooth="yes"/>
      <point x="-30" y="134"/>
      <point x="86" y="-30"/>
    </contour>
    <contour>
      <point x="434" y="236" type="curve"/>
      <point x="368" y="246"/>
      <point x="340" y="276"/>
      <point x="348" y="316" type="curve" smooth="yes"/>
      <point x="354" y="350"/>
      <point x="390" y="372"/>
      <point x="446" y="376" type="curve"/>
      <point x="508" y="366"/>
      <point x="540" y="340"/>
      <point x="532" y="300" type="curve" smooth="yes"/>
      <point x="524" y="260"/>
      <point x="490" y="242"/>
    </contour>
    <contour>
      <point x="508" y="566" type="curve"/>
      <point x="458" y="574"/>
      <point x="428" y="600"/>
      <point x="438" y="644" type="curve" smooth="yes"/>
      <point x="446" y="682"/>
      <point x="486" y="698"/>
      <point x="524" y="702" type="curve"/>
      <point x="570" y="696"/>
      <point x="604" y="672"/>
      <point x="594" y="630" type="curve" smooth="yes"/>
      <point x="584" y="588"/>
      <point x="548" y="572"/>
    </contour>
  </outline>
</glyph>
<glyph name="five.dnom" format="2">
  <advance width="884"/>
  <outline>
    <contour>
      <point x="330" y="-32" type="curve" smooth="yes"/>
      <point x="624" y="-32"/>
      <point x="746" y="74"/>
      <point x="784" y="250" type="curve" smooth="yes"/>
      <point x="826" y="442"/>
      <point x="702" y="576"/>
      <point x="552" y="576" type="curve" smooth="yes"/>
      <point x="506" y="576"/>
      <point x="466" y="566"/>
      <point x="424" y="548" type="curve"/>
      <point x="400" y="548" type="line"/>
      <point x="408" y="582" type="line"/>
      <point x="422" y="636"/>
      <point x="440" y="702"/>
      <point x="466" y="748" type="curve"/>
      <point x="342" y="648" type="line"/>
      <point x="486" y="648" type="line"/>
      <point x="598" y="648"/>
      <point x="714" y="648"/>
      <point x="820" y="616" type="curve"/>
      <point x="884" y="924" type="line"/>
      <point x="164" y="924" type="line"/>
      <point x="160" y="806"/>
      <point x="134" y="672"/>
      <point x="106" y="540" type="curve"/>
      <point x="70" y="374" type="line"/>
      <point x="208" y="348" type="line"/>
      <point x="248" y="374"/>
      <point x="294" y="384"/>
      <point x="334" y="384" type="curve"/>
      <point x="418" y="380"/>
      <point x="444" y="342"/>
      <point x="436" y="304" type="curve" smooth="yes"/>
      <point x="428" y="264"/>
      <point x="382" y="248"/>
      <point x="314" y="244" type="curve"/>
      <point x="240" y="244"/>
      <point x="118" y="288"/>
      <point x="30" y="332" type="curve"/>
      <point x="-50" y="36" type="line"/>
      <point x="28" y="18"/>
      <point x="160" y="-32"/>
    </contour>
  </outline>
</glyph>
<glyph name="hookabovecomb.case" format="2">
  <anchor x="706" y="1004" name="_top"/>
  <anchor x="828" y="1586" name="top"/>
  <outline>
    <contour>
      <point x="566" y="1108" type="line"/>
      <point x="806" y="1108" type="line"/>
      <point x="810" y="1132" type="line"/>
      <point x="968" y="1132"/>
      <point x="1106" y="1202"/>
      <point x="1134" y="1336" type="curve" smooth="yes"/>
      <point x="1172" y="1516"/>
      <point x="984" y="1586"/>
      <point x="816" y="1586" type="curve" smooth="yes"/>
      <point x="744" y="1586"/>
      <point x="574" y="1554"/>
      <point x="514" y="1542" type="curve"/>
      <point x="476" y="1280" type="line"/>
      <point x="564" y="1308"/>
      <point x="692" y="1346"/>
      <point x="726" y="1346" type="curve"/>
      <point x="770" y="1342"/>
      <point x="796" y="1320"/>
      <point x="790" y="1290" type="curve" smooth="yes"/>
      <point x="780" y="1242"/>
      <point x="688" y="1216"/>
      <point x="588" y="1216" type="curve"/>
    </contour>
  </outline>
</glyph>
<glyph name="macroncomb.case" format="2">
  <anchor x="706" y="1004" name="_top"/>
  <anchor x="796" y="1434" name="top"/>
  <outline>
    <contour>
      <point x="356" y="1110" type="line"/>
      <point x="470" y="1122"/>
      <point x="596" y="1126"/>
      <point x="732" y="1126" type="curve"/>
      <point x="868" y="1126"/>
      <point x="990" y="1122"/>
      <point x="1100" y="1110" type="curve"/>
      <point x="1174" y="1462" type="line"/>
      <point x="1060" y="1450"/>
      <point x="934" y="1446"/>
      <point x="798" y="1446" type="curve"/>
      <point x="662" y="1446"/>
      <point x="540" y="1450"/>
      <point x="430" y="1462" type="curve"/>
    </contour>
  </outline>
</glyph>
<glyph name="macroncomb.narrow" format="2">
  <anchor x="706" y="1004" name="_top"/>
  <anchor x="796" y="1434" name="top"/>
  <outline>
    <contour>
      <point x="418" y="1110" type="line"/>
      <point x="514" y="1122"/>
      <point x="618" y="1126"/>
      <point x="732" y="1126" type="curve"/>
      <point x="846" y="1126"/>
      <point x="950" y="1122"/>
      <point x="1042" y="1110" type="curve"/>
      <point x="1116" y="1462" type="line"/>
      <point x="1020" y="1450"/>
      <point x="914" y="1446"/>
      <point x="800" y="1446" type="curve"/>
      <point x="686" y="1446"/>
      <point x="584" y="1450"/>
      <point x="492" y="1462" type="curve"/>
    </contour>
  </outline>
</glyph>
<glyph name="ogonekcomb.a" format="2">
  <anchor x="494" y="0" name="_ogonek"/>
  <outline>
    <contour>
      <point x="336" y="-456" type="curve" smooth="yes"/>
      <point x="394" y="-456"/>
      <point x="438" y="-448"/>
      <point x="470" y="-440" type="curve"/>
      <point x="522" y="-186" type="line"/>
      <point x="508" y="-190"/>
      <point x="478" y="-198"/>
      <point x="452" y="-198" type="curve" smooth="yes"/>
      <point x="392" y="-198"/>
      <point x="360" y="-172"/>
      <point x="368" y="-128" type="curve" smooth="yes"/>
      <point x="378" y="-72"/>
      <point x="448" y="-32"/>
      <point x="554" y="0" type="curve"/>
      <point x="482" y="82" type="line"/>
      <point x="254" y="54" type="line"/>
      <point x="236" y="-30" type="line"/>
      <point x="158" y="-54"/>
      <point x="58" y="-100"/>
      <point x="36" y="-218" type="curve" smooth="yes"/>
      <point x="14" y="-338"/>
      <point x="96" y="-456"/>
    </contour>
  </outline>
</glyph>
<glyph name="one.dnom" format="2">
  <advance width="714"/>
  <outline>
    <contour>
      <point x="90" y="462" type="line"/>
      <point x="230" y="534"/>
      <point x="358" y="580"/>
      <point x="472" y="620" type="curve"/>
      <point x="548" y="932" type="line"/>
      <point x="386" y="872"/>
      <point x="232" y="816"/>
      <point x="68" y="770" type="curve"/>
    </contour>
    <contour>
      <point x="140" y="0" type="curve"/>
      <point x="536" y="0" type="line"/>
      <point x="534" y="94"/>
      <point x="548" y="172"/>
      <point x="572" y="286" type="curve"/>
      <point x="636" y="592" type="line"/>
      <point x="658" y="696"/>
      <point x="686" y="810"/>
      <point x="730" y="924" type="curve"/>
      <point x="548" y="932" type="line"/>
      <point x="310" y="788" type="line"/>
      <point x="308" y="692"/>
      <point x="292" y="608"/>
      <point x="274" y="522" type="curve"/>
      <point x="226" y="294" type="line"/>
      <point x="202" y="180"/>
      <point x="182" y="96"/>
    </contour>
  </outline>
</glyph>
<glyph name="three.dnom" format="2">
  <advance width="888"/>
  <outline>
    <contour>
      <point x="338" y="-30" type="curve" smooth="yes"/>
      <point x="632" y="-30"/>
      <point x="750" y="52"/>
      <point x="784" y="220" type="curve" smooth="yes"/>
      <point x="816" y="374"/>
      <point x="720" y="448"/>
      <point x="634" y="474" type="curve"/>
      <point x="638" y="496" type="line"/>
      <point x="738" y="514"/>
      <point x="826" y="550"/>
      <point x="850" y="658" type="curve" smooth="yes"/>
      <point x="884" y="814"/>
      <point x="746" y="954"/>
      <point x="484" y="954" type="curve" smooth="yes"/>
      <point x="380" y="954"/>
      <point x="224" y="918"/>
      <point x="140" y="896" type="curve"/>
      <point x="108" y="580" type="line"/>
      <point x="220" y="632"/>
      <point x="350" y="678"/>
      <point x="402" y="678" type="curve"/>
      <point x="466" y="674"/>
      <point x="494" y="652"/>
      <point x="484" y="616" type="curve" smooth="yes"/>
      <point x="474" y="580"/>
      <point x="434" y="566"/>
      <point x="368" y="562" type="curve"/>
      <point x="326" y="562"/>
      <point x="282" y="564"/>
      <point x="238" y="574" type="curve"/>
      <point x="192" y="350" type="line"/>
      <point x="246" y="362"/>
      <point x="294" y="362"/>
      <point x="336" y="362" type="curve"/>
      <point x="412" y="358"/>
      <point x="446" y="342"/>
      <point x="434" y="298" type="curve" smooth="yes"/>
      <point x="424" y="264"/>
      <point x="390" y="250"/>
      <point x="326" y="246" type="curve"/>
      <point x="248" y="246"/>
      <point x="122" y="290"/>
      <point x="30" y="334" type="curve"/>
      <point x="-50" y="38" type="line"/>
      <point x="30" y="20"/>
      <point x="164" y="-30"/>
    </contour>
  </outline>
</glyph>
